<svg width="186" height="34" viewBox="0 0 186 34" fill="none" xmlns="http://www.w3.org/2000/svg">
<path d="M60.6463 15.1874C60.5658 14.8891 60.4474 14.6263 60.2912 14.3991C60.1349 14.1671 59.9432 13.9706 59.7159 13.8096C59.4886 13.6486 59.2282 13.5278 58.9347 13.4474C58.6411 13.3621 58.3191 13.3195 57.9688 13.3195C57.2633 13.3195 56.6525 13.49 56.1364 13.8309C55.625 14.1718 55.2296 14.6689 54.9503 15.3224C54.6709 15.971 54.5312 16.7594 54.5312 17.6874C54.5312 18.6202 54.6662 19.4156 54.9361 20.0738C55.206 20.7319 55.5966 21.2338 56.108 21.5795C56.6193 21.9251 57.2396 22.0979 57.9688 22.0979C58.6127 22.0979 59.1572 21.9938 59.6023 21.7854C60.0521 21.5724 60.393 21.2717 60.625 20.8834C60.857 20.4952 60.973 20.0383 60.973 19.5127L61.6264 19.5908H58.0895V17.0269H64.3608V18.9516C64.3608 20.2537 64.0838 21.3688 63.5298 22.2968C62.9806 23.2248 62.223 23.9374 61.2571 24.4346C60.2959 24.9317 59.1903 25.1803 57.9403 25.1803C56.553 25.1803 55.3338 24.8796 54.2827 24.2783C53.2315 23.677 52.4124 22.82 51.8253 21.7073C51.2382 20.5899 50.9446 19.2641 50.9446 17.73C50.9446 16.5368 51.1222 15.4786 51.4773 14.5553C51.8324 13.6273 52.3272 12.8413 52.9616 12.1974C53.6009 11.5534 54.3395 11.0657 55.1776 10.7343C56.0204 10.4028 56.9271 10.2371 57.8977 10.2371C58.7405 10.2371 59.5241 10.3579 60.2486 10.5993C60.9777 10.8408 61.6217 11.1817 62.1804 11.6221C62.7438 12.0624 63.2008 12.5856 63.5511 13.1917C63.9015 13.7977 64.1193 14.463 64.2045 15.1874H60.6463ZM66.4329 24.9814V14.0724H69.8065V16.061H69.9201C70.119 15.3413 70.4433 14.8063 70.8931 14.4559C71.3429 14.1008 71.8661 13.9232 72.4627 13.9232C72.6237 13.9232 72.7894 13.935 72.9599 13.9587C73.1303 13.9777 73.2889 14.0084 73.4357 14.051V17.0695C73.27 17.0127 73.0522 16.9677 72.7823 16.9346C72.5172 16.9014 72.2804 16.8849 72.0721 16.8849C71.6602 16.8849 71.2885 16.9772 70.957 17.1618C70.6303 17.3418 70.3723 17.5951 70.1829 17.9218C69.9982 18.2438 69.9059 18.6225 69.9059 19.0581V24.9814H66.4329ZM79.3768 25.1874C78.2309 25.1874 77.2461 24.953 76.4222 24.4843C75.6031 24.0108 74.971 23.3527 74.5259 22.5099C74.0856 21.6623 73.8654 20.6798 73.8654 19.5624C73.8654 18.4403 74.0856 17.4578 74.5259 16.615C74.971 15.7674 75.6031 15.1093 76.4222 14.6405C77.2461 14.1671 78.2309 13.9303 79.3768 13.9303C80.5226 13.9303 81.5051 14.1671 82.3242 14.6405C83.1481 15.1093 83.7802 15.7674 84.2205 16.615C84.6656 17.4578 84.8881 18.4403 84.8881 19.5624C84.8881 20.6798 84.6656 21.6623 84.2205 22.5099C83.7802 23.3527 83.1481 24.0108 82.3242 24.4843C81.5051 24.953 80.5226 25.1874 79.3768 25.1874ZM79.3981 22.5667C79.8147 22.5667 80.1675 22.4388 80.4563 22.1831C80.7451 21.9275 80.9653 21.5724 81.1168 21.1178C81.2731 20.6633 81.3512 20.1377 81.3512 19.5411C81.3512 18.935 81.2731 18.4047 81.1168 17.9502C80.9653 17.4956 80.7451 17.1405 80.4563 16.8849C80.1675 16.6292 79.8147 16.5013 79.3981 16.5013C78.9672 16.5013 78.6026 16.6292 78.3043 16.8849C78.0108 17.1405 77.7859 17.4956 77.6296 17.9502C77.4781 18.4047 77.4023 18.935 77.4023 19.5411C77.4023 20.1377 77.4781 20.6633 77.6296 21.1178C77.7859 21.5724 78.0108 21.9275 78.3043 22.1831C78.6026 22.4388 78.9672 22.5667 79.3981 22.5667ZM91.7596 25.1874C90.609 25.1874 89.6218 24.9507 88.7979 24.4772C87.9788 24.0037 87.3491 23.3456 86.9087 22.5028C86.4684 21.6552 86.2482 20.6751 86.2482 19.5624C86.2482 18.445 86.4684 17.4649 86.9087 16.6221C87.3538 15.7745 87.9859 15.114 88.805 14.6405C89.6289 14.1671 90.6114 13.9303 91.7525 13.9303C92.761 13.9303 93.6393 14.1126 94.3874 14.4772C95.1403 14.8418 95.7274 15.3579 96.1488 16.0255C96.5749 16.6884 96.7998 17.4672 96.8235 18.3621H93.5778C93.5115 17.8034 93.3221 17.3654 93.0096 17.0482C92.7018 16.731 92.2994 16.5724 91.8022 16.5724C91.3997 16.5724 91.047 16.686 90.744 16.9133C90.4409 17.1358 90.2042 17.4672 90.0337 17.9076C89.868 18.3432 89.7852 18.883 89.7852 19.5269C89.7852 20.1708 89.868 20.7153 90.0337 21.1604C90.2042 21.6008 90.4409 21.9346 90.744 22.1618C91.047 22.3844 91.3997 22.4956 91.8022 22.4956C92.1242 22.4956 92.4083 22.427 92.6545 22.2897C92.9054 22.1524 93.1114 21.9511 93.2724 21.686C93.4334 21.4161 93.5352 21.0894 93.5778 20.7059H96.8235C96.7904 21.6055 96.5655 22.3915 96.1488 23.0638C95.7369 23.7362 95.1568 24.2594 94.4087 24.6334C93.6654 25.0028 92.7823 25.1874 91.7596 25.1874ZM103.7 25.1874C102.559 25.1874 101.574 24.9625 100.746 24.5127C99.9219 24.0581 99.2874 23.4118 98.8423 22.5738C98.402 21.731 98.1818 20.7296 98.1818 19.5695C98.1818 18.4426 98.4044 17.4578 98.8494 16.615C99.2945 15.7674 99.9219 15.1093 100.732 14.6405C101.541 14.1671 102.495 13.9303 103.594 13.9303C104.37 13.9303 105.08 14.051 105.724 14.2925C106.368 14.534 106.925 14.8915 107.393 15.365C107.862 15.8385 108.227 16.4232 108.487 17.1192C108.748 17.8105 108.878 18.6036 108.878 19.4985V20.365H99.3963V18.3479H105.646C105.642 17.9786 105.554 17.6495 105.384 17.3607C105.213 17.0719 104.979 16.847 104.68 16.686C104.387 16.5203 104.048 16.4374 103.665 16.4374C103.277 16.4374 102.929 16.525 102.621 16.7002C102.313 16.8706 102.069 17.105 101.889 17.4033C101.709 17.6969 101.615 18.0307 101.605 18.4047V20.4573C101.605 20.9024 101.693 21.293 101.868 21.6292C102.043 21.9606 102.292 22.2187 102.614 22.4033C102.936 22.588 103.319 22.6803 103.764 22.6803C104.072 22.6803 104.351 22.6377 104.602 22.5525C104.853 22.4672 105.069 22.3418 105.249 22.176C105.429 22.0103 105.563 21.8067 105.653 21.5653L108.842 21.6576C108.71 22.3725 108.419 22.9952 107.969 23.5255C107.524 24.051 106.939 24.4606 106.214 24.7542C105.49 25.043 104.652 25.1874 103.7 25.1874ZM110.652 24.9814V14.0724H114.025V16.061H114.139C114.338 15.3413 114.662 14.8063 115.112 14.4559C115.562 14.1008 116.085 13.9232 116.681 13.9232C116.842 13.9232 117.008 13.935 117.179 13.9587C117.349 13.9777 117.508 14.0084 117.654 14.051V17.0695C117.489 17.0127 117.271 16.9677 117.001 16.9346C116.736 16.9014 116.499 16.8849 116.291 16.8849C115.879 16.8849 115.507 16.9772 115.176 17.1618C114.849 17.3418 114.591 17.5951 114.402 17.9218C114.217 18.2438 114.125 18.6225 114.125 19.0581V24.9814H110.652ZM121.525 29.0724C121.109 29.0724 120.716 29.0392 120.346 28.9729C119.977 28.9114 119.66 28.8285 119.395 28.7243L120.162 26.203C120.502 26.3167 120.81 26.383 121.085 26.4019C121.364 26.4208 121.603 26.3759 121.802 26.267C122.006 26.1628 122.162 25.9758 122.271 25.7059L122.406 25.3792L118.528 14.0724H122.164L124.174 21.8564H124.288L126.326 14.0724H129.984L125.872 26.0255C125.673 26.6221 125.391 27.1476 125.027 27.6022C124.667 28.0615 124.2 28.4213 123.627 28.6817C123.059 28.9421 122.359 29.0724 121.525 29.0724ZM143.475 14.7968C143.427 14.276 143.217 13.8711 142.843 13.5823C142.473 13.2887 141.945 13.142 141.259 13.142C140.804 13.142 140.426 13.2011 140.123 13.3195C139.819 13.4379 139.592 13.6012 139.441 13.8096C139.289 14.0132 139.211 14.2475 139.206 14.5127C139.197 14.7305 139.239 14.9223 139.334 15.088C139.434 15.2537 139.576 15.4005 139.76 15.5283C139.95 15.6514 140.177 15.7603 140.442 15.855C140.707 15.9497 141.006 16.0326 141.337 16.1036L142.587 16.3877C143.307 16.5439 143.941 16.7523 144.49 17.0127C145.044 17.2731 145.508 17.5832 145.882 17.9431C146.261 18.3029 146.548 18.7172 146.742 19.186C146.936 19.6547 147.035 20.1803 147.04 20.7627C147.035 21.6813 146.803 22.4696 146.344 23.1278C145.885 23.7859 145.224 24.2902 144.363 24.6405C143.506 24.9909 142.471 25.1661 141.259 25.1661C140.042 25.1661 138.981 24.9838 138.077 24.6192C137.173 24.2546 136.47 23.7007 135.968 22.9573C135.466 22.2139 135.208 21.2741 135.194 20.1377H138.56C138.588 20.6064 138.714 20.9971 138.936 21.3096C139.159 21.6221 139.464 21.8588 139.853 22.0198C140.246 22.1808 140.7 22.2613 141.216 22.2613C141.69 22.2613 142.092 22.1974 142.424 22.0695C142.76 21.9417 143.018 21.7641 143.198 21.5368C143.378 21.3096 143.47 21.0492 143.475 20.7556C143.47 20.481 143.385 20.2466 143.219 20.0525C143.053 19.8536 142.798 19.6831 142.452 19.5411C142.111 19.3943 141.676 19.2594 141.145 19.1363L139.625 18.7812C138.366 18.4923 137.374 18.026 136.65 17.382C135.925 16.7333 135.565 15.8574 135.57 14.7542C135.565 13.8546 135.807 13.0662 136.294 12.3891C136.782 11.712 137.457 11.1841 138.319 10.8053C139.18 10.4265 140.163 10.2371 141.266 10.2371C142.393 10.2371 143.371 10.4289 144.199 10.8124C145.033 11.1912 145.679 11.7239 146.138 12.4104C146.597 13.097 146.832 13.8924 146.841 14.7968H143.475ZM152.289 18.7599V24.9814H148.816V10.436H152.175V16.0752H152.296C152.542 15.4028 152.944 14.8773 153.503 14.4985C154.067 14.1197 154.756 13.9303 155.57 13.9303C156.337 13.9303 157.005 14.1008 157.573 14.4417C158.141 14.7778 158.581 15.2537 158.894 15.8692C159.211 16.4848 159.367 17.2045 159.363 18.0283V24.9814H155.89V18.7101C155.894 18.1041 155.743 17.6306 155.435 17.2897C155.127 16.9488 154.694 16.7783 154.135 16.7783C153.771 16.7783 153.449 16.8588 153.169 17.0198C152.895 17.176 152.679 17.401 152.523 17.6945C152.372 17.9881 152.293 18.3432 152.289 18.7599ZM166.623 25.1874C165.477 25.1874 164.492 24.953 163.668 24.4843C162.849 24.0108 162.217 23.3527 161.772 22.5099C161.332 21.6623 161.112 20.6798 161.112 19.5624C161.112 18.4403 161.332 17.4578 161.772 16.615C162.217 15.7674 162.849 15.1093 163.668 14.6405C164.492 14.1671 165.477 13.9303 166.623 13.9303C167.769 13.9303 168.751 14.1671 169.57 14.6405C170.394 15.1093 171.026 15.7674 171.467 16.615C171.912 17.4578 172.134 18.4403 172.134 19.5624C172.134 20.6798 171.912 21.6623 171.467 22.5099C171.026 23.3527 170.394 24.0108 169.57 24.4843C168.751 24.953 167.769 25.1874 166.623 25.1874ZM166.644 22.5667C167.061 22.5667 167.414 22.4388 167.702 22.1831C167.991 21.9275 168.211 21.5724 168.363 21.1178C168.519 20.6633 168.597 20.1377 168.597 19.5411C168.597 18.935 168.519 18.4047 168.363 17.9502C168.211 17.4956 167.991 17.1405 167.702 16.8849C167.414 16.6292 167.061 16.5013 166.644 16.5013C166.213 16.5013 165.849 16.6292 165.55 16.8849C165.257 17.1405 165.032 17.4956 164.876 17.9502C164.724 18.4047 164.648 18.935 164.648 19.5411C164.648 20.1377 164.724 20.6633 164.876 21.1178C165.032 21.5724 165.257 21.9275 165.55 22.1831C165.849 22.4388 166.213 22.5667 166.644 22.5667ZM173.913 29.0724V14.0724H177.351V15.9403H177.457C177.599 15.6088 177.801 15.2892 178.061 14.9814C178.326 14.6737 178.662 14.4227 179.07 14.2286C179.482 14.0297 179.974 13.9303 180.547 13.9303C181.304 13.9303 182.012 14.1292 182.67 14.5269C183.333 14.9246 183.868 15.5378 184.276 16.3664C184.683 17.195 184.886 18.2509 184.886 19.534C184.886 20.7698 184.69 21.8044 184.297 22.6377C183.909 23.471 183.383 24.096 182.72 24.5127C182.062 24.9294 181.33 25.1377 180.526 25.1377C179.976 25.1377 179.5 25.0477 179.098 24.8678C178.696 24.6879 178.357 24.4511 178.082 24.1576C177.812 23.864 177.604 23.5492 177.457 23.213H177.386V29.0724H173.913ZM177.315 19.5269C177.315 20.114 177.393 20.6254 177.55 21.061C177.711 21.4966 177.94 21.8351 178.239 22.0766C178.542 22.3134 178.904 22.4317 179.325 22.4317C179.751 22.4317 180.114 22.3134 180.412 22.0766C180.71 21.8351 180.935 21.4966 181.087 21.061C181.243 20.6254 181.321 20.114 181.321 19.5269C181.321 18.9398 181.243 18.4308 181.087 17.9999C180.935 17.569 180.71 17.2352 180.412 16.9985C180.118 16.7617 179.756 16.6434 179.325 16.6434C178.899 16.6434 178.537 16.7594 178.239 16.9914C177.94 17.2234 177.711 17.5548 177.55 17.9857C177.393 18.4166 177.315 18.9303 177.315 19.5269Z" fill="#09160C"/>
<path d="M38.6079 12.6787H32.2082L32.0605 12.2682H28.1181L28.2658 12.6787H22.2912L18.3033 1.63234C18.0369 0.900847 17.3345 0.408203 16.5573 0.408203C16.3475 0.408203 16.1378 0.44657 15.9297 0.519521C14.9702 0.864281 14.4704 1.92792 14.8169 2.89123L18.3524 12.6787H2.90777C2.24365 12.6787 1.61609 12.9395 1.14362 13.412C0.671156 13.8845 0.410156 14.512 0.410156 15.1779C0.410156 16.4458 1.36068 17.4967 2.5994 17.6554L5.94342 30.962C6.2572 32.2171 7.381 33.0946 8.67628 33.0946H32.8394C34.1328 33.0946 35.2566 32.219 35.574 30.962L38.9163 17.6572C39.4655 17.5896 39.9725 17.3416 40.372 16.9439C40.8463 16.4696 41.1073 15.8421 41.1073 15.1779C41.1073 13.7987 39.9853 12.6787 38.6079 12.6787ZM21.5012 19.8792C21.7001 20.0763 21.8114 20.3409 21.8114 20.6199V29.5062C21.8114 30.0864 21.3389 30.5588 20.7569 30.5588C20.1767 30.5588 19.7061 30.0864 19.7061 29.5062V20.6199C19.7061 20.0397 20.1767 19.5672 20.7569 19.5672C21.0379 19.5672 21.3005 19.6767 21.5012 19.8792ZM12.491 30.4711C12.4308 30.4839 12.3669 30.4893 12.3049 30.4893C11.7959 30.4893 11.36 30.1244 11.2686 29.6245L9.68877 20.8787C9.58664 20.3077 9.96796 19.7585 10.5408 19.6546C10.5973 19.6436 10.6575 19.6382 10.7268 19.6382C11.2267 19.6382 11.6718 20.0103 11.7613 20.503L13.3412 29.2488C13.4433 29.82 13.062 30.369 12.491 30.4711ZM30.7908 19.6384C30.8583 19.6384 30.9203 19.6438 30.9769 19.6548C31.2523 19.7039 31.4931 19.861 31.6538 20.0927C31.8143 20.3243 31.8764 20.6035 31.8253 20.8771L30.2454 29.6247C30.156 30.1245 29.7218 30.4895 29.2109 30.4895C29.149 30.4895 29.085 30.4841 29.0231 30.4713C28.7494 30.4221 28.5086 30.267 28.3481 30.0352C28.1876 29.8036 28.1255 29.5244 28.1748 29.249L29.7547 20.5032C29.8439 20.0105 30.289 19.6384 30.7908 19.6384Z" fill="#09160C"/>
<path d="M38.608 12.2687H31.6246L31.9202 13.0879H38.608C39.7556 13.0879 40.697 14.0292 40.697 15.1786C40.697 15.7514 40.4617 16.275 40.0822 16.6546C39.7045 17.0303 39.1828 17.2675 38.608 17.2675H38.5917L35.1765 30.8643C34.9065 31.9351 33.9451 32.685 32.8395 32.685H8.67645C7.57264 32.685 6.60952 31.9351 6.34131 30.8643L3.40058 19.1576L2.92451 17.2675H2.90812C1.75874 17.2675 0.821011 16.3262 0.821011 15.1786C0.821011 14.604 1.05643 14.0804 1.43398 13.7027C1.8117 13.3231 2.33514 13.0879 2.90812 13.0879H18.9366L15.2022 2.75123C14.934 2.00515 15.3225 1.17316 16.0688 0.90495C16.2311 0.84839 16.3954 0.819209 16.5577 0.819209C17.1486 0.819209 17.7052 1.18594 17.9187 1.77153L22.0034 13.0877H28.8501L28.5545 12.2685H22.58L18.6884 1.49414C18.3636 0.598376 17.5062 0 16.5575 0C16.3003 0 16.0448 0.0437702 15.7948 0.133112C14.6181 0.556407 14.0089 1.85529 14.4302 3.02827L17.7688 12.2685H2.90794C2.13448 12.2685 1.40461 12.5713 0.853792 13.1223C0.302789 13.6733 0 14.403 0 15.1783C0 16.5611 0.972314 17.7232 2.26759 18.015L2.60515 19.3577L5.54588 31.0626C5.90523 32.5002 7.1933 33.5055 8.67645 33.5055H32.8395C34.3209 33.5055 35.6088 32.5002 35.9701 31.0646L39.2502 18.0152C39.7792 17.8967 40.2663 17.6285 40.6622 17.2326C41.2132 16.6816 41.516 15.9519 41.516 15.1784C41.5162 13.573 40.2117 12.2687 38.608 12.2687ZM28.9501 30.8749C29.0376 30.8913 29.1252 30.8987 29.2109 30.8987C29.9042 30.8987 30.5226 30.4006 30.6485 29.6983L32.2284 20.9507C32.3725 20.1609 31.8416 19.3964 31.0516 19.2523C30.9623 19.2359 30.8765 19.2304 30.7908 19.2304C30.0993 19.2304 29.4791 19.7284 29.3514 20.4307L27.7715 29.1765C27.6294 29.9682 28.1602 30.7326 28.9501 30.8749ZM30.791 20.0494C30.8347 20.0494 30.8695 20.053 30.9005 20.0586C31.072 20.0896 31.2179 20.1845 31.3164 20.3268C31.4149 20.4673 31.4533 20.6388 31.4221 20.8048L29.8422 29.5524C29.7893 29.8534 29.5175 30.0797 29.2111 30.0797C29.1727 30.0797 29.1345 30.0761 29.0962 30.0687C28.7476 30.0067 28.516 29.671 28.5781 29.3226L30.1598 20.5768C30.2126 20.2756 30.4844 20.0494 30.791 20.0494ZM20.7571 19.1572C19.9545 19.1572 19.2957 19.8158 19.2957 20.6204V29.5067C19.2957 30.3131 19.9543 30.9698 20.7571 30.9698C21.5635 30.9698 22.2202 30.3131 22.2202 29.5067V20.6204C22.2202 20.2191 22.0562 19.8523 21.7898 19.5879C21.5269 19.3215 21.1584 19.1572 20.7571 19.1572ZM20.1167 29.5067V20.6204C20.1167 20.2664 20.4031 19.9782 20.7571 19.9782C20.9286 19.9782 21.0891 20.044 21.2078 20.1661C21.3337 20.2902 21.4012 20.4507 21.4012 20.6204V29.5067C21.4012 29.8624 21.113 30.1506 20.7573 30.1506C20.4031 30.1506 20.1167 29.8624 20.1167 29.5067ZM10.727 19.2302C10.6413 19.2302 10.5537 19.2356 10.4662 19.2521C9.67435 19.3962 9.14532 20.1607 9.28582 20.9506L10.8657 29.6982C10.9934 30.4005 11.6138 30.8985 12.3051 30.8985C12.3908 30.8985 12.4784 30.8913 12.5641 30.8747C13.3577 30.7324 13.8868 29.968 13.7445 29.1763L12.1646 20.4305C12.0387 19.7282 11.4165 19.2302 10.727 19.2302ZM12.4182 30.0685C12.3816 30.0759 12.3434 30.0795 12.3051 30.0795C11.9985 30.0795 11.7267 29.8514 11.6721 29.5504L10.0922 20.8046C10.0303 20.4581 10.2637 20.1223 10.6123 20.0586C10.6488 20.0532 10.6834 20.0494 10.7272 20.0494C11.0318 20.0494 11.3038 20.2756 11.3583 20.5766L12.9382 29.3224C13.0002 29.6708 12.7684 30.0065 12.4182 30.0685ZM13.7445 29.1765L12.1646 20.4307C12.0387 19.7284 11.4165 19.2304 10.727 19.2304C10.6413 19.2304 10.5537 19.2356 10.4662 19.2521C9.67435 19.3962 9.14532 20.1607 9.28582 20.9506L10.8657 29.6983C10.9934 30.4006 11.6138 30.8987 12.3051 30.8987C12.3908 30.8987 12.4784 30.8913 12.5641 30.8747C13.3577 30.7324 13.8868 29.9682 13.7445 29.1765ZM12.4182 30.0685C12.3816 30.0759 12.3434 30.0795 12.3051 30.0795C11.9985 30.0795 11.7267 29.8514 11.6721 29.5504L10.0922 20.8046C10.0303 20.4581 10.2637 20.1223 10.6123 20.0586C10.6488 20.0532 10.6834 20.0494 10.7272 20.0494C11.0318 20.0494 11.3038 20.2756 11.3583 20.5766L12.9382 29.3224C13.0002 29.6708 12.7684 30.0065 12.4182 30.0685ZM31.0518 19.2521C30.9624 19.2358 30.8767 19.2302 30.791 19.2302C30.0995 19.2302 29.4793 19.7282 29.3516 20.4305L27.7717 29.1763C27.6294 29.9682 28.1602 30.7324 28.9503 30.8747C29.0378 30.8911 29.1254 30.8985 29.2111 30.8985C29.9044 30.8985 30.5228 30.4005 30.6487 29.6982L32.2285 20.9506C32.3727 20.1607 31.8416 19.3962 31.0518 19.2521ZM29.2111 30.0795C29.1727 30.0795 29.1345 30.0759 29.0962 30.0685C28.7476 30.0065 28.516 29.6708 28.5781 29.3224L30.1598 20.5768C30.2128 20.2758 30.4846 20.0494 30.791 20.0494C30.8347 20.0494 30.8695 20.053 30.9005 20.0586C31.072 20.0896 31.2179 20.1845 31.3164 20.3268C31.4149 20.4673 31.4533 20.6388 31.4221 20.8048L29.8422 29.5524C29.7893 29.8532 29.5175 30.0795 29.2111 30.0795ZM21.7898 19.5877C21.5271 19.3213 21.1584 19.1572 20.7571 19.1572C19.9545 19.1572 19.2959 19.8158 19.2959 20.6204V29.5067C19.2959 30.3131 19.9543 30.9698 20.7571 30.9698C21.5635 30.9698 22.2204 30.3131 22.2204 29.5067V20.6204C22.2202 20.2191 22.056 19.8523 21.7898 19.5877ZM20.1167 29.5067V20.6204C20.1167 20.2664 20.4031 19.9782 20.7571 19.9782C20.9286 19.9782 21.0891 20.044 21.2078 20.1661C21.3337 20.2902 21.4012 20.4507 21.4012 20.6204V29.5067C21.4012 29.8624 21.113 30.1506 20.7573 30.1506C20.4031 30.1506 20.1167 29.8624 20.1167 29.5067ZM31.0518 19.2521C30.9624 19.2358 30.8767 19.2302 30.791 19.2302C30.0995 19.2302 29.4793 19.7282 29.3516 20.4305L27.7717 29.1763C27.6294 29.9682 28.1602 30.7324 28.9503 30.8747C29.0378 30.8911 29.1254 30.8985 29.2111 30.8985C29.9044 30.8985 30.5228 30.4005 30.6487 29.6982L32.2285 20.9506C32.3727 20.1607 31.8416 19.3962 31.0518 19.2521ZM29.2111 30.0795C29.1727 30.0795 29.1345 30.0759 29.0962 30.0685C28.7476 30.0065 28.516 29.6708 28.5781 29.3224L30.1598 20.5768C30.2128 20.2758 30.4846 20.0494 30.791 20.0494C30.8347 20.0494 30.8695 20.053 30.9005 20.0586C31.072 20.0896 31.2179 20.1845 31.3164 20.3268C31.4149 20.4673 31.4533 20.6388 31.4221 20.8048L29.8422 29.5524C29.7893 29.8532 29.5175 30.0795 29.2111 30.0795ZM20.7571 19.1572C19.9545 19.1572 19.2957 19.8158 19.2957 20.6204V29.5067C19.2957 30.3131 19.9543 30.9698 20.7571 30.9698C21.5635 30.9698 22.2202 30.3131 22.2202 29.5067V20.6204C22.2202 20.2191 22.0562 19.8523 21.7898 19.5879C21.5269 19.3215 21.1584 19.1572 20.7571 19.1572ZM20.1167 29.5067V20.6204C20.1167 20.2664 20.4031 19.9782 20.7571 19.9782C20.9286 19.9782 21.0891 20.044 21.2078 20.1661C21.3337 20.2902 21.4012 20.4507 21.4012 20.6204V29.5067C21.4012 29.8624 21.113 30.1506 20.7573 30.1506C20.4031 30.1506 20.1167 29.8624 20.1167 29.5067ZM12.1646 20.4307C12.0387 19.7284 11.4165 19.2304 10.727 19.2304C10.6413 19.2304 10.5537 19.2356 10.4662 19.2521C9.67435 19.3962 9.14532 20.1607 9.28582 20.9506L10.8657 29.6983C10.9934 30.4006 11.6138 30.8987 12.3051 30.8987C12.3908 30.8987 12.4784 30.8913 12.5641 30.8747C13.3577 30.7324 13.8868 29.9682 13.7445 29.1765L12.1646 20.4307ZM12.4182 30.0685C12.3816 30.0759 12.3434 30.0795 12.3051 30.0795C11.9985 30.0795 11.7267 29.8514 11.6721 29.5504L10.0922 20.8046C10.0303 20.4581 10.2637 20.1223 10.6123 20.0586C10.6488 20.0532 10.6834 20.0494 10.7272 20.0494C11.0318 20.0494 11.3038 20.2756 11.3583 20.5766L12.9382 29.3224C13.0002 29.6708 12.7684 30.0065 12.4182 30.0685Z" fill="#09160C"/>
<path d="M35.167 12.2686H24.6406V13.0878H35.167V12.2686Z" fill="#09160C"/>
<path d="M21.3584 15.5504C20.6118 15.82 19.7805 15.4297 19.5108 14.6831L15.2026 2.7523C14.933 2.00568 15.3233 1.1744 16.0699 0.904754C16.8165 0.635107 17.6478 1.02544 17.9175 1.77206L22.2257 13.7028C22.4952 14.4495 22.1048 15.2809 21.3584 15.5504Z" fill="#FF902A"/>
<path d="M40.697 15.1781C40.697 15.7519 40.4614 16.2745 40.0822 16.6535C39.7052 17.0305 39.1827 17.2663 38.6088 17.2663H2.9085C1.75895 17.2663 0.820312 16.3256 0.820312 15.1781C0.820312 14.6042 1.05592 14.0797 1.4331 13.7027C1.81226 13.3235 2.33481 13.0879 2.9085 13.0879H38.6086C39.7564 13.0877 40.697 14.0283 40.697 15.1781Z" fill="#019934"/>
<path d="M2.92578 17.2666L6.34186 30.8634C6.61043 31.9351 7.57356 32.6851 8.67808 32.6851H32.841C33.9455 32.6851 34.9067 31.9351 35.1772 30.8634L38.5933 17.2666H2.92578ZM12.5655 30.8756C11.7746 31.019 11.0102 30.4883 10.8668 29.6972L9.28691 20.9511C9.14551 20.1601 9.67616 19.3957 10.4673 19.2523C10.5553 19.2359 10.6414 19.2298 10.7275 19.2298C11.4181 19.2298 12.039 19.7278 12.1662 20.4307L13.7461 29.177C13.8873 29.9678 13.3586 30.7322 12.5655 30.8756ZM22.2217 29.5068C22.2217 30.3122 21.5639 30.97 20.7585 30.97C19.9552 30.97 19.2974 30.3122 19.2974 29.5068V20.6213C19.2974 19.8159 19.9552 19.1581 20.7585 19.1581C21.1602 19.1581 21.527 19.322 21.7914 19.5884C22.0578 19.8528 22.2217 20.2196 22.2217 20.6213V29.5068ZM32.2302 20.9511L30.6503 29.6972C30.5089 30.4882 29.7445 31.019 28.9515 30.8756C28.1606 30.7322 27.6298 29.9678 27.7732 29.1768L29.353 20.4305C29.48 19.7277 30.1011 19.2296 30.7917 19.2296C30.8778 19.2296 30.9639 19.2357 31.052 19.2521C31.8429 19.3957 32.3737 20.1601 32.2302 20.9511Z" fill="#019934"/>
<path d="M38.5922 17.2666L38.4449 17.854L3.10284 17.9713L2.92578 17.2666H38.5922Z" fill="#09160C"/>
<path d="M32.4884 13.5871C32.6379 13.3322 32.7621 13.1179 32.889 12.9037C33.0357 12.6554 33.1768 12.4044 33.332 12.1612C33.4561 11.9654 33.5957 11.7775 33.7298 11.5869C34.002 11.1966 34.2771 10.8076 34.5479 10.4173C34.8032 10.0494 35.0388 9.66957 35.3125 9.31475C35.5452 9.01381 35.8485 8.75886 36.0728 8.45397C36.5538 7.80215 37.1815 7.28174 37.7697 6.72453C38.1675 6.34737 38.5766 5.98203 38.9927 5.62326C39.1451 5.49185 39.3341 5.39723 39.5457 5.26055C39.3468 5.18433 39.2241 5.16331 39.0802 5.26844C38.9702 5.3486 38.8221 5.38671 38.6909 5.44191C38.3876 5.5707 38.0815 5.69423 37.7796 5.82827C37.4792 5.96232 37.1773 6.09636 36.8881 6.25012C36.7118 6.34474 36.5623 6.48273 36.3944 6.59049C36.1504 6.74556 35.8922 6.88355 35.6524 7.04519C35.469 7.16872 35.2983 7.31196 35.1305 7.45389C34.7792 7.75221 34.4139 8.04133 34.088 8.3633C33.7975 8.65241 33.5548 8.98227 33.2868 9.2911C33.1387 9.46325 32.9737 9.62358 32.8312 9.80099C32.6958 9.9692 32.5787 10.1506 32.4602 10.3293C32.3431 10.5054 32.2274 10.6815 32.1217 10.8628C31.9919 11.0849 31.8776 11.3149 31.7507 11.5383C31.6152 11.7749 31.477 12.0101 31.3303 12.2414C31.312 12.2703 31.2372 12.2926 31.1991 12.2834C31.1497 12.2703 31.0778 12.2269 31.0707 12.1875C30.996 11.7985 30.6998 11.5278 30.4614 11.24C30.1722 10.8891 29.828 10.5724 29.4796 10.2688C29.2609 10.0783 28.9929 9.93504 28.7447 9.77471C28.5796 9.66826 28.416 9.5605 28.2439 9.46588C28.0238 9.34761 27.7967 9.24116 27.571 9.13077C27.4102 9.05323 27.2536 8.96124 27.0844 8.90605C26.8502 8.83114 26.6076 8.78251 26.3664 8.72995C26.3353 8.72338 26.293 8.7628 26.2563 8.7812C26.2803 8.81143 26.2972 8.84954 26.3283 8.87056C26.6513 9.09266 26.98 9.30818 27.2988 9.53553C27.4793 9.663 27.6472 9.80625 27.8165 9.94686C28.1719 10.2426 28.5331 10.5343 28.8787 10.8392C29.1805 11.106 29.4852 11.3727 29.7532 11.6671C30.01 11.9483 30.2385 12.2545 30.4473 12.5686C30.594 12.7894 30.6828 13.043 30.8168 13.3203C30.5051 13.3808 30.254 13.4071 30.0184 13.4807C29.2567 13.7185 28.4795 13.5687 27.7093 13.5726C27.4539 13.574 27.1972 13.432 26.9405 13.3571C26.7698 13.3072 26.5878 13.2809 26.4284 13.2099C26.1223 13.0719 25.8247 12.9182 25.5327 12.7565C25.1293 12.5331 24.8062 12.2217 24.5213 11.8787C24.3845 11.7144 24.2674 11.5331 24.1573 11.3504C23.9641 11.0271 23.7694 10.7038 23.6044 10.3687C23.5155 10.1887 23.4915 9.98235 23.4309 9.78916C23.3547 9.54999 23.2503 9.31606 23.1967 9.07294C23.1516 8.86136 23.1643 8.63796 23.1459 8.42112C23.1008 7.91122 23.0486 7.40264 23.0035 6.89275C22.995 6.79813 23.0049 6.70351 23.0035 6.60889C23.0006 6.44987 23.0825 6.39468 23.2517 6.3592C24.1291 6.17127 25.0206 6.22515 25.9009 6.26852C26.3114 6.28823 26.7472 6.31846 27.1478 6.48536C27.358 6.5734 27.6063 6.57735 27.8278 6.64568C28.0196 6.70482 28.2016 6.79681 28.3821 6.88223C28.66 7.01365 28.9534 7.12798 29.2073 7.29225C29.5769 7.53143 29.9662 7.75352 30.2216 8.12149C30.3485 8.30416 30.522 8.45923 30.6744 8.62744C30.6842 8.63796 30.6998 8.64453 30.711 8.65373C30.7872 8.71812 30.7689 8.91919 30.9283 8.83902C31.0059 8.80091 31.0242 8.63796 31.0439 8.52757C31.1032 8.1964 31.1187 7.85471 31.209 7.53274C31.2993 7.21077 31.4558 6.90457 31.5899 6.59443C31.6886 6.36577 31.7775 6.12922 31.9044 5.91501C32.0793 5.62195 32.2641 5.32758 32.487 5.06606C32.7748 4.72963 33.0936 4.41292 33.4236 4.11066C33.7171 3.84257 34.0344 3.59551 34.3589 3.35896C34.665 3.13555 34.9838 2.92529 35.3139 2.73605C35.5353 2.60989 35.7878 2.53104 36.0262 2.43247C36.1391 2.38648 36.2505 2.33785 36.3648 2.2958C36.6187 2.20381 36.8754 2.11576 37.1307 2.0264C37.4707 1.90681 37.805 1.76882 38.152 1.67026C38.4271 1.59272 38.7191 1.57038 38.9998 1.51125C39.3228 1.44422 39.6416 1.36274 39.9618 1.28784C39.9914 1.28127 40.0211 1.27075 40.0521 1.26944C40.8223 1.21424 41.5939 1.16168 42.3641 1.10385C42.7647 1.07363 43.1639 1.02369 43.5645 1.00135C43.8579 0.98558 43.999 1.1078 43.999 1.37983C44.0004 2.59017 44.0032 3.80052 43.9835 5.01086C43.9778 5.34729 43.9003 5.6824 43.8495 6.01751C43.8114 6.26983 43.7761 6.52347 43.7112 6.77053C43.6492 7.00971 43.5504 7.241 43.47 7.47755C43.4587 7.51172 43.463 7.55114 43.4517 7.58531C43.3642 7.85603 43.2739 8.12412 43.1879 8.39484C43.1286 8.58013 43.0807 8.76937 43.0186 8.95336C42.9693 9.0966 42.9128 9.23984 42.8437 9.37652C42.7718 9.52107 42.6815 9.65906 42.5983 9.79836C42.4431 10.0599 42.2922 10.3253 42.1285 10.5829C42.0086 10.7722 41.8817 10.9614 41.7378 11.1362C41.5953 11.3097 41.4387 11.4726 41.2723 11.6264C41.0156 11.8642 40.756 12.1021 40.4781 12.3176C40.2411 12.5003 39.9788 12.654 39.7234 12.817C39.5471 12.93 39.3694 13.0404 39.186 13.1416C39.0647 13.2086 38.9377 13.2717 38.8051 13.3151C38.6161 13.3768 38.4172 13.4149 38.2254 13.4728C37.9813 13.5464 37.7429 13.6344 37.4989 13.7067C37.3198 13.7593 37.135 13.8289 36.9516 13.8368C35.9275 13.8828 34.909 14.0681 33.8779 13.9735C33.5337 13.9419 33.1881 13.9078 32.8538 13.8328C32.7127 13.7974 32.5914 13.6581 32.4884 13.5871Z" fill="#019934"/>
</svg>
