<svg width="186" height="34" viewBox="0 0 186 34" fill="none" xmlns="http://www.w3.org/2000/svg">
<path d="M60.6462 15.4347C60.5657 15.1364 60.4473 14.8736 60.2911 14.6463C60.1348 14.4143 59.9431 14.2178 59.7158 14.0569C59.4885 13.8959 59.2281 13.7751 58.9345 13.6946C58.641 13.6094 58.319 13.5668 57.9686 13.5668C57.2631 13.5668 56.6523 13.7373 56.1362 14.0782C55.6249 14.4191 55.2295 14.9162 54.9502 15.5696C54.6708 16.2183 54.5311 17.0067 54.5311 17.9347C54.5311 18.8675 54.6661 19.6629 54.936 20.3211C55.2058 20.9792 55.5965 21.4811 56.1078 21.8267C56.6192 22.1724 57.2395 22.3452 57.9686 22.3452C58.6126 22.3452 59.1571 22.241 59.6022 22.0327C60.052 21.8196 60.3929 21.519 60.6249 21.1307C60.8569 20.7425 60.9729 20.2855 60.9729 19.76L61.6263 19.8381H58.0894V17.2742H64.3607V19.1989C64.3607 20.501 64.0837 21.616 63.5297 22.5441C62.9805 23.4721 62.2229 24.1847 61.257 24.6819C60.2958 25.179 59.1902 25.4276 57.9402 25.4276C56.5529 25.4276 55.3337 25.1269 54.2825 24.5256C53.2314 23.9243 52.4123 23.0673 51.8252 21.9546C51.238 20.8372 50.9445 19.5114 50.9445 17.9773C50.9445 16.7841 51.122 15.7259 51.4772 14.8026C51.8323 13.8746 52.3271 13.0886 52.9615 12.4446C53.6007 11.8007 54.3394 11.313 55.1774 10.9816C56.0202 10.6501 56.927 10.4844 57.8976 10.4844C58.7404 10.4844 59.524 10.6051 60.2485 10.8466C60.9776 11.0881 61.6216 11.429 62.1803 11.8694C62.7437 12.3097 63.2006 12.8329 63.551 13.439C63.9014 14.045 64.1192 14.7103 64.2044 15.4347H60.6462ZM66.4328 25.2287V14.3196H69.8063V16.3083H69.92C70.1188 15.5886 70.4432 15.0535 70.893 14.7032C71.3428 14.348 71.866 14.1705 72.4626 14.1705C72.6236 14.1705 72.7893 14.1823 72.9598 14.206C73.1302 14.2249 73.2888 14.2557 73.4356 14.2983V17.3168C73.2699 17.26 73.0521 17.215 72.7822 17.1819C72.517 17.1487 72.2803 17.1321 72.072 17.1321C71.66 17.1321 71.2883 17.2245 70.9569 17.4091C70.6302 17.5891 70.3722 17.8424 70.1828 18.1691C69.9981 18.491 69.9058 18.8698 69.9058 19.3054V25.2287H66.4328ZM79.3767 25.4347C78.2308 25.4347 77.246 25.2003 76.4221 24.7316C75.603 24.2581 74.9709 23.5999 74.5258 22.7571C74.0855 21.9096 73.8653 20.9271 73.8653 19.8097C73.8653 18.6875 74.0855 17.7051 74.5258 16.8623C74.9709 16.0147 75.603 15.3566 76.4221 14.8878C77.246 14.4143 78.2308 14.1776 79.3767 14.1776C80.5225 14.1776 81.505 14.4143 82.3241 14.8878C83.148 15.3566 83.7801 16.0147 84.2204 16.8623C84.6655 17.7051 84.888 18.6875 84.888 19.8097C84.888 20.9271 84.6655 21.9096 84.2204 22.7571C83.7801 23.5999 83.148 24.2581 82.3241 24.7316C81.505 25.2003 80.5225 25.4347 79.3767 25.4347ZM79.398 22.814C79.8146 22.814 80.1674 22.6861 80.4562 22.4304C80.745 22.1748 80.9652 21.8196 81.1167 21.3651C81.273 20.9105 81.3511 20.385 81.3511 19.7884C81.3511 19.1823 81.273 18.652 81.1167 18.1975C80.9652 17.7429 80.745 17.3878 80.4562 17.1321C80.1674 16.8765 79.8146 16.7486 79.398 16.7486C78.9671 16.7486 78.6025 16.8765 78.3042 17.1321C78.0106 17.3878 77.7857 17.7429 77.6295 18.1975C77.478 18.652 77.4022 19.1823 77.4022 19.7884C77.4022 20.385 77.478 20.9105 77.6295 21.3651C77.7857 21.8196 78.0106 22.1748 78.3042 22.4304C78.6025 22.6861 78.9671 22.814 79.398 22.814ZM91.7595 25.4347C90.6089 25.4347 89.6217 25.198 88.7978 24.7245C87.9787 24.251 87.349 23.5928 86.9086 22.75C86.4683 21.9025 86.2481 20.9224 86.2481 19.8097C86.2481 18.6923 86.4683 17.7122 86.9086 16.8694C87.3537 16.0218 87.9858 15.3613 88.8049 14.8878C89.6288 14.4143 90.6113 14.1776 91.7524 14.1776C92.7609 14.1776 93.6392 14.3599 94.3873 14.7245C95.1401 15.0891 95.7273 15.6051 96.1487 16.2728C96.5748 16.9356 96.7997 17.7145 96.8234 18.6094H93.5776C93.5114 18.0507 93.322 17.6127 93.0095 17.2955C92.7017 16.9783 92.2992 16.8196 91.8021 16.8196C91.3996 16.8196 91.0469 16.9333 90.7438 17.1605C90.4408 17.3831 90.2041 17.7145 90.0336 18.1549C89.8679 18.5905 89.785 19.1302 89.785 19.7742C89.785 20.4181 89.8679 20.9626 90.0336 21.4077C90.2041 21.848 90.4408 22.1819 90.7438 22.4091C91.0469 22.6317 91.3996 22.7429 91.8021 22.7429C92.124 22.7429 92.4081 22.6743 92.6544 22.537C92.9053 22.3997 93.1113 22.1984 93.2723 21.9333C93.4332 21.6634 93.535 21.3367 93.5776 20.9532H96.8234C96.7902 21.8528 96.5653 22.6388 96.1487 23.3111C95.7367 23.9835 95.1567 24.5067 94.4086 24.8807C93.6652 25.25 92.7822 25.4347 91.7595 25.4347ZM103.7 25.4347C102.559 25.4347 101.574 25.2098 100.746 24.76C99.9218 24.3054 99.2873 23.6591 98.8422 22.8211C98.4019 21.9783 98.1817 20.9768 98.1817 19.8168C98.1817 18.6899 98.4042 17.7051 98.8493 16.8623C99.2944 16.0147 99.9218 15.3566 100.731 14.8878C101.541 14.4143 102.495 14.1776 103.594 14.1776C104.37 14.1776 105.08 14.2983 105.724 14.5398C106.368 14.7813 106.925 15.1388 107.393 15.6123C107.862 16.0857 108.227 16.6705 108.487 17.3665C108.748 18.0578 108.878 18.8509 108.878 19.7458V20.6123H99.3962V18.5952H105.646C105.641 18.2259 105.554 17.8968 105.383 17.608C105.213 17.3192 104.979 17.0943 104.68 16.9333C104.387 16.7676 104.048 16.6847 103.665 16.6847C103.276 16.6847 102.928 16.7723 102.621 16.9475C102.313 17.1179 102.069 17.3523 101.889 17.6506C101.709 17.9442 101.614 18.278 101.605 18.652V20.7046C101.605 21.1497 101.693 21.5403 101.868 21.8765C102.043 22.2079 102.292 22.4659 102.614 22.6506C102.935 22.8353 103.319 22.9276 103.764 22.9276C104.072 22.9276 104.351 22.885 104.602 22.7998C104.853 22.7145 105.069 22.5891 105.248 22.4233C105.428 22.2576 105.563 22.054 105.653 21.8125L108.842 21.9049C108.71 22.6198 108.418 23.2425 107.969 23.7728C107.524 24.2983 106.939 24.7079 106.214 25.0015C105.49 25.2903 104.652 25.4347 103.7 25.4347ZM110.652 25.2287V14.3196H114.025V16.3083H114.139C114.338 15.5886 114.662 15.0535 115.112 14.7032C115.562 14.348 116.085 14.1705 116.681 14.1705C116.842 14.1705 117.008 14.1823 117.179 14.206C117.349 14.2249 117.508 14.2557 117.654 14.2983V17.3168C117.489 17.26 117.271 17.215 117.001 17.1819C116.736 17.1487 116.499 17.1321 116.291 17.1321C115.879 17.1321 115.507 17.2245 115.176 17.4091C114.849 17.5891 114.591 17.8424 114.402 18.1691C114.217 18.491 114.125 18.8698 114.125 19.3054V25.2287H110.652ZM121.525 29.3196C121.108 29.3196 120.715 29.2865 120.346 29.2202C119.977 29.1587 119.66 29.0758 119.394 28.9716L120.161 26.4503C120.502 26.564 120.81 26.6302 121.085 26.6492C121.364 26.6681 121.603 26.6231 121.802 26.5142C122.006 26.4101 122.162 26.223 122.271 25.9532L122.406 25.6265L118.528 14.3196H122.164L124.174 22.1037H124.288L126.326 14.3196H129.984L125.872 26.2728C125.673 26.8694 125.391 27.3949 125.027 27.8495C124.667 28.3087 124.2 28.6686 123.627 28.929C123.059 29.1894 122.358 29.3196 121.525 29.3196ZM143.475 15.0441C143.427 14.5232 143.217 14.1184 142.843 13.8296C142.473 13.536 141.945 13.3892 141.259 13.3892C140.804 13.3892 140.425 13.4484 140.122 13.5668C139.819 13.6852 139.592 13.8485 139.441 14.0569C139.289 14.2605 139.211 14.4948 139.206 14.76C139.197 14.9778 139.239 15.1695 139.334 15.3353C139.433 15.501 139.576 15.6478 139.76 15.7756C139.95 15.8987 140.177 16.0076 140.442 16.1023C140.707 16.197 141.005 16.2799 141.337 16.3509L142.587 16.635C143.307 16.7912 143.941 16.9996 144.49 17.26C145.044 17.5204 145.508 17.8305 145.882 18.1904C146.261 18.5502 146.548 18.9645 146.742 19.4333C146.936 19.902 147.035 20.4276 147.04 21.01C147.035 21.9285 146.803 22.7169 146.344 23.375C145.885 24.0332 145.224 24.5374 144.362 24.8878C143.505 25.2382 142.471 25.4134 141.259 25.4134C140.042 25.4134 138.981 25.2311 138.077 24.8665C137.173 24.5019 136.469 23.948 135.968 23.2046C135.466 22.4612 135.208 21.5213 135.193 20.385H138.56C138.588 20.8537 138.714 21.2444 138.936 21.5569C139.159 21.8694 139.464 22.1061 139.853 22.2671C140.245 22.4281 140.7 22.5086 141.216 22.5086C141.69 22.5086 142.092 22.4446 142.424 22.3168C142.76 22.189 143.018 22.0114 143.198 21.7841C143.378 21.5569 143.47 21.2964 143.475 21.0029C143.47 20.7283 143.385 20.4939 143.219 20.2998C143.053 20.1009 142.798 19.9304 142.452 19.7884C142.111 19.6416 141.675 19.5067 141.145 19.3836L139.625 19.0284C138.366 18.7396 137.374 18.2732 136.649 17.6293C135.925 16.9806 135.565 16.1047 135.57 15.0015C135.565 14.1018 135.807 13.3135 136.294 12.6364C136.782 11.9593 137.457 11.4314 138.318 11.0526C139.18 10.6738 140.163 10.4844 141.266 10.4844C142.393 10.4844 143.37 10.6762 144.199 11.0597C145.032 11.4385 145.679 11.9712 146.138 12.6577C146.597 13.3443 146.832 14.1397 146.841 15.0441H143.475ZM152.289 19.0071V25.2287H148.816V10.6833H152.175V16.3225H152.296C152.542 15.6501 152.944 15.1246 153.503 14.7458C154.067 14.367 154.755 14.1776 155.57 14.1776C156.337 14.1776 157.004 14.348 157.573 14.689C158.141 15.0251 158.581 15.501 158.894 16.1165C159.211 16.732 159.367 17.4517 159.362 18.2756V25.2287H155.889V18.9574C155.894 18.3514 155.743 17.8779 155.435 17.537C155.127 17.1961 154.694 17.0256 154.135 17.0256C153.771 17.0256 153.449 17.1061 153.169 17.2671C152.895 17.4233 152.679 17.6482 152.523 17.9418C152.371 18.2354 152.293 18.5905 152.289 19.0071ZM166.623 25.4347C165.477 25.4347 164.492 25.2003 163.668 24.7316C162.849 24.2581 162.217 23.5999 161.772 22.7571C161.332 21.9096 161.111 20.9271 161.111 19.8097C161.111 18.6875 161.332 17.7051 161.772 16.8623C162.217 16.0147 162.849 15.3566 163.668 14.8878C164.492 14.4143 165.477 14.1776 166.623 14.1776C167.769 14.1776 168.751 14.4143 169.57 14.8878C170.394 15.3566 171.026 16.0147 171.466 16.8623C171.912 17.7051 172.134 18.6875 172.134 19.8097C172.134 20.9271 171.912 21.9096 171.466 22.7571C171.026 23.5999 170.394 24.2581 169.57 24.7316C168.751 25.2003 167.769 25.4347 166.623 25.4347ZM166.644 22.814C167.061 22.814 167.413 22.6861 167.702 22.4304C167.991 22.1748 168.211 21.8196 168.363 21.3651C168.519 20.9105 168.597 20.385 168.597 19.7884C168.597 19.1823 168.519 18.652 168.363 18.1975C168.211 17.7429 167.991 17.3878 167.702 17.1321C167.413 16.8765 167.061 16.7486 166.644 16.7486C166.213 16.7486 165.849 16.8765 165.55 17.1321C165.257 17.3878 165.032 17.7429 164.876 18.1975C164.724 18.652 164.648 19.1823 164.648 19.7884C164.648 20.385 164.724 20.9105 164.876 21.3651C165.032 21.8196 165.257 22.1748 165.55 22.4304C165.849 22.6861 166.213 22.814 166.644 22.814ZM173.913 29.3196V14.3196H177.351V16.1875H177.457C177.599 15.8561 177.801 15.5365 178.061 15.2287C178.326 14.921 178.662 14.67 179.069 14.4759C179.481 14.277 179.974 14.1776 180.547 14.1776C181.304 14.1776 182.012 14.3765 182.67 14.7742C183.333 15.1719 183.868 15.7851 184.275 16.6137C184.683 17.4423 184.886 18.4981 184.886 19.7813C184.886 21.0171 184.69 22.0516 184.297 22.885C183.908 23.7183 183.383 24.3433 182.72 24.76C182.062 25.1766 181.33 25.385 180.525 25.385C179.976 25.385 179.5 25.295 179.098 25.1151C178.695 24.9352 178.357 24.6984 178.082 24.4049C177.812 24.1113 177.604 23.7964 177.457 23.4603H177.386V29.3196H173.913ZM177.315 19.7742C177.315 20.3613 177.393 20.8727 177.55 21.3083C177.711 21.7439 177.94 22.0824 178.239 22.3239C178.542 22.5606 178.904 22.679 179.325 22.679C179.751 22.679 180.114 22.5606 180.412 22.3239C180.71 22.0824 180.935 21.7439 181.087 21.3083C181.243 20.8727 181.321 20.3613 181.321 19.7742C181.321 19.1871 181.243 18.6781 181.087 18.2472C180.935 17.8163 180.71 17.4825 180.412 17.2458C180.118 17.009 179.756 16.8907 179.325 16.8907C178.899 16.8907 178.537 17.0067 178.239 17.2387C177.94 17.4707 177.711 17.8021 177.55 18.233C177.393 18.6639 177.315 19.1776 177.315 19.7742Z" fill="#09160C"/>
<path d="M38.6082 12.9264H32.2085L32.0608 12.5159H28.1184L28.2661 12.9264H22.2915L18.3036 1.88008C18.0372 1.14859 17.3349 0.655945 16.5576 0.655945C16.3478 0.655945 16.1381 0.694312 15.9301 0.767263C14.9705 1.11202 14.4707 2.17566 14.8172 3.13897L18.3527 12.9264H2.90808C2.24396 12.9264 1.6164 13.1873 1.14393 13.6597C0.671461 14.1322 0.410461 14.7598 0.410461 15.4257C0.410461 16.6936 1.36098 17.7444 2.5997 17.9031L5.94373 31.2097C6.25751 32.4648 7.38131 33.3424 8.67659 33.3424H32.8397C34.1332 33.3424 35.257 32.4668 35.5743 31.2097L38.9166 17.9049C39.4658 17.8374 39.9728 17.5893 40.3723 17.1916C40.8466 16.7174 41.1076 16.0898 41.1076 15.4257C41.1076 14.0465 39.9856 12.9264 38.6082 12.9264ZM21.5015 20.1269C21.7004 20.324 21.8117 20.5886 21.8117 20.8676V29.7539C21.8117 30.3341 21.3392 30.8066 20.7572 30.8066C20.177 30.8066 19.7064 30.3341 19.7064 29.7539V20.8676C19.7064 20.2874 20.177 19.815 20.7572 19.815C21.0382 19.815 21.3008 19.9245 21.5015 20.1269ZM12.4913 30.7189C12.4311 30.7316 12.3672 30.737 12.3052 30.737C11.7962 30.737 11.3603 30.3721 11.269 29.8723L9.68907 21.1265C9.58694 20.5555 9.96827 20.0063 10.5411 19.9023C10.5976 19.8913 10.6578 19.8859 10.7271 19.8859C11.227 19.8859 11.6721 20.2581 11.7616 20.7507L13.3415 29.4965C13.4436 30.0677 13.0623 30.6167 12.4913 30.7189ZM30.7911 19.8861C30.8587 19.8861 30.9206 19.8915 30.9772 19.9025C31.2526 19.9517 31.4934 20.1088 31.6541 20.3404C31.8146 20.572 31.8767 20.8512 31.8256 21.1248L30.2457 29.8724C30.1563 30.3723 29.7221 30.7372 29.2112 30.7372C29.1493 30.7372 29.0853 30.7318 29.0234 30.719C28.7497 30.6699 28.5089 30.5148 28.3484 30.2829C28.1879 30.0513 28.1258 29.7721 28.1751 29.4967L29.755 20.7509C29.8442 20.2583 30.2893 19.8861 30.7911 19.8861Z" fill="#09160C"/>
<path d="M38.608 12.516H31.6246L31.9202 13.3352H38.608C39.7556 13.3352 40.697 14.2765 40.697 15.4259C40.697 15.9987 40.4617 16.5223 40.0822 16.9018C39.7045 17.2776 39.1828 17.5148 38.608 17.5148H38.5917L35.1765 31.1116C34.9065 32.1824 33.9451 32.9323 32.8395 32.9323H8.67645C7.57264 32.9323 6.60952 32.1824 6.34131 31.1116L3.40058 19.4049L2.92451 17.5148H2.90812C1.75874 17.5148 0.821011 16.5735 0.821011 15.4259C0.821011 14.8513 1.05643 14.3277 1.43398 13.95C1.8117 13.5704 2.33514 13.3352 2.90812 13.3352H18.9366L15.2022 2.99852C14.934 2.25244 15.3225 1.42044 16.0688 1.15223C16.2311 1.09567 16.3954 1.06649 16.5577 1.06649C17.1486 1.06649 17.7052 1.43323 17.9187 2.01881L22.0034 13.335H28.8501L28.5545 12.5158H22.58L18.6884 1.74142C18.3636 0.84566 17.5062 0.247284 16.5575 0.247284C16.3003 0.247284 16.0448 0.291054 15.7948 0.380396C14.6181 0.803691 14.0089 2.10257 14.4302 3.27555L17.7688 12.5158H2.90794C2.13448 12.5158 1.40461 12.8186 0.853792 13.3696C0.302789 13.9206 0 14.6503 0 15.4255C0 16.8084 0.972314 17.9705 2.26759 18.2623L2.60515 19.605L5.54588 31.3099C5.90523 32.7475 7.1933 33.7527 8.67645 33.7527H32.8395C34.3209 33.7527 35.6088 32.7475 35.9701 31.3119L39.2502 18.2625C39.7792 18.144 40.2663 17.8758 40.6622 17.4799C41.2132 16.9289 41.516 16.1992 41.516 15.4257C41.5162 13.8203 40.2117 12.516 38.608 12.516ZM28.9501 31.1222C29.0376 31.1386 29.1252 31.146 29.2109 31.146C29.9042 31.146 30.5226 30.6479 30.6485 29.9456L32.2284 21.198C32.3725 20.4082 31.8416 19.6437 31.0516 19.4996C30.9623 19.4832 30.8765 19.4776 30.7908 19.4776C30.0993 19.4776 29.4791 19.9757 29.3514 20.678L27.7715 29.4238C27.6294 30.2154 28.1602 30.9799 28.9501 31.1222ZM30.791 20.2967C30.8347 20.2967 30.8695 20.3003 30.9005 20.3059C31.072 20.3368 31.2179 20.4318 31.3164 20.5741C31.4149 20.7146 31.4533 20.886 31.4221 21.0521L29.8422 29.7997C29.7893 30.1007 29.5175 30.3269 29.2111 30.3269C29.1727 30.3269 29.1345 30.3233 29.0962 30.316C28.7476 30.254 28.516 29.9182 28.5781 29.5699L30.1598 20.8241C30.2126 20.5229 30.4844 20.2967 30.791 20.2967ZM20.7571 19.4045C19.9545 19.4045 19.2957 20.063 19.2957 20.8677V29.754C19.2957 30.5604 19.9543 31.2171 20.7571 31.2171C21.5635 31.2171 22.2202 30.5604 22.2202 29.754V20.8677C22.2202 20.4663 22.0562 20.0996 21.7898 19.8352C21.5269 19.5688 21.1584 19.4045 20.7571 19.4045ZM20.1167 29.754V20.8677C20.1167 20.5137 20.4031 20.2255 20.7571 20.2255C20.9286 20.2255 21.0891 20.2913 21.2078 20.4134C21.3337 20.5375 21.4012 20.698 21.4012 20.8677V29.754C21.4012 30.1097 21.113 30.3979 20.7573 30.3979C20.4031 30.3979 20.1167 30.1097 20.1167 29.754ZM10.727 19.4775C10.6413 19.4775 10.5537 19.4829 10.4662 19.4994C9.67435 19.6435 9.14532 20.408 9.28582 21.1978L10.8657 29.9454C10.9934 30.6477 11.6138 31.1458 12.3051 31.1458C12.3908 31.1458 12.4784 31.1386 12.5641 31.122C13.3577 30.9797 13.8868 30.2153 13.7445 29.4236L12.1646 20.6778C12.0387 19.9755 11.4165 19.4775 10.727 19.4775ZM12.4182 30.3158C12.3816 30.3232 12.3434 30.3268 12.3051 30.3268C11.9985 30.3268 11.7267 30.0987 11.6721 29.7977L10.0922 21.0519C10.0303 20.7054 10.2637 20.3696 10.6123 20.3059C10.6488 20.3004 10.6834 20.2967 10.7272 20.2967C11.0318 20.2967 11.3038 20.5229 11.3583 20.8239L12.9382 29.5697C13.0002 29.9181 12.7684 30.2538 12.4182 30.3158ZM13.7445 29.4238L12.1646 20.678C12.0387 19.9757 11.4165 19.4776 10.727 19.4776C10.6413 19.4776 10.5537 19.4829 10.4662 19.4994C9.67435 19.6435 9.14532 20.408 9.28582 21.1978L10.8657 29.9456C10.9934 30.6479 11.6138 31.146 12.3051 31.146C12.3908 31.146 12.4784 31.1386 12.5641 31.122C13.3577 30.9797 13.8868 30.2154 13.7445 29.4238ZM12.4182 30.3158C12.3816 30.3232 12.3434 30.3268 12.3051 30.3268C11.9985 30.3268 11.7267 30.0987 11.6721 29.7977L10.0922 21.0519C10.0303 20.7054 10.2637 20.3696 10.6123 20.3059C10.6488 20.3004 10.6834 20.2967 10.7272 20.2967C11.0318 20.2967 11.3038 20.5229 11.3583 20.8239L12.9382 29.5697C13.0002 29.9181 12.7684 30.2538 12.4182 30.3158ZM31.0518 19.4994C30.9624 19.483 30.8767 19.4775 30.791 19.4775C30.0995 19.4775 29.4793 19.9755 29.3516 20.6778L27.7717 29.4236C27.6294 30.2154 28.1602 30.9797 28.9503 31.122C29.0378 31.1384 29.1254 31.1458 29.2111 31.1458C29.9044 31.1458 30.5228 30.6477 30.6487 29.9454L32.2285 21.1978C32.3727 20.408 31.8416 19.6435 31.0518 19.4994ZM29.2111 30.3268C29.1727 30.3268 29.1345 30.3232 29.0962 30.3158C28.7476 30.2538 28.516 29.9181 28.5781 29.5697L30.1598 20.8241C30.2128 20.5231 30.4846 20.2967 30.791 20.2967C30.8347 20.2967 30.8695 20.3003 30.9005 20.3059C31.072 20.3368 31.2179 20.4318 31.3164 20.5741C31.4149 20.7146 31.4533 20.886 31.4221 21.0521L29.8422 29.7997C29.7893 30.1005 29.5175 30.3268 29.2111 30.3268ZM21.7898 19.835C21.5271 19.5686 21.1584 19.4045 20.7571 19.4045C19.9545 19.4045 19.2959 20.063 19.2959 20.8677V29.754C19.2959 30.5604 19.9543 31.2171 20.7571 31.2171C21.5635 31.2171 22.2204 30.5604 22.2204 29.754V20.8677C22.2202 20.4663 22.056 20.0996 21.7898 19.835ZM20.1167 29.754V20.8677C20.1167 20.5137 20.4031 20.2255 20.7571 20.2255C20.9286 20.2255 21.0891 20.2913 21.2078 20.4134C21.3337 20.5375 21.4012 20.698 21.4012 20.8677V29.754C21.4012 30.1097 21.113 30.3979 20.7573 30.3979C20.4031 30.3979 20.1167 30.1097 20.1167 29.754ZM31.0518 19.4994C30.9624 19.483 30.8767 19.4775 30.791 19.4775C30.0995 19.4775 29.4793 19.9755 29.3516 20.6778L27.7717 29.4236C27.6294 30.2154 28.1602 30.9797 28.9503 31.122C29.0378 31.1384 29.1254 31.1458 29.2111 31.1458C29.9044 31.1458 30.5228 30.6477 30.6487 29.9454L32.2285 21.1978C32.3727 20.408 31.8416 19.6435 31.0518 19.4994ZM29.2111 30.3268C29.1727 30.3268 29.1345 30.3232 29.0962 30.3158C28.7476 30.2538 28.516 29.9181 28.5781 29.5697L30.1598 20.8241C30.2128 20.5231 30.4846 20.2967 30.791 20.2967C30.8347 20.2967 30.8695 20.3003 30.9005 20.3059C31.072 20.3368 31.2179 20.4318 31.3164 20.5741C31.4149 20.7146 31.4533 20.886 31.4221 21.0521L29.8422 29.7997C29.7893 30.1005 29.5175 30.3268 29.2111 30.3268ZM20.7571 19.4045C19.9545 19.4045 19.2957 20.063 19.2957 20.8677V29.754C19.2957 30.5604 19.9543 31.2171 20.7571 31.2171C21.5635 31.2171 22.2202 30.5604 22.2202 29.754V20.8677C22.2202 20.4663 22.0562 20.0996 21.7898 19.8352C21.5269 19.5688 21.1584 19.4045 20.7571 19.4045ZM20.1167 29.754V20.8677C20.1167 20.5137 20.4031 20.2255 20.7571 20.2255C20.9286 20.2255 21.0891 20.2913 21.2078 20.4134C21.3337 20.5375 21.4012 20.698 21.4012 20.8677V29.754C21.4012 30.1097 21.113 30.3979 20.7573 30.3979C20.4031 30.3979 20.1167 30.1097 20.1167 29.754ZM12.1646 20.678C12.0387 19.9757 11.4165 19.4776 10.727 19.4776C10.6413 19.4776 10.5537 19.4829 10.4662 19.4994C9.67435 19.6435 9.14532 20.408 9.28582 21.1978L10.8657 29.9456C10.9934 30.6479 11.6138 31.146 12.3051 31.146C12.3908 31.146 12.4784 31.1386 12.5641 31.122C13.3577 30.9797 13.8868 30.2154 13.7445 29.4238L12.1646 20.678ZM12.4182 30.3158C12.3816 30.3232 12.3434 30.3268 12.3051 30.3268C11.9985 30.3268 11.7267 30.0987 11.6721 29.7977L10.0922 21.0519C10.0303 20.7054 10.2637 20.3696 10.6123 20.3059C10.6488 20.3004 10.6834 20.2967 10.7272 20.2967C11.0318 20.2967 11.3038 20.5229 11.3583 20.8239L12.9382 29.5697C13.0002 29.9181 12.7684 30.2538 12.4182 30.3158Z" fill="#09160C"/>
<path d="M35.1676 12.5159H24.6413V13.3351H35.1676V12.5159Z" fill="#09160C"/>
<path d="M21.359 15.7977C20.6124 16.0673 19.7811 15.677 19.5115 14.9304L15.2032 2.99958C14.9336 2.25296 15.3239 1.42169 16.0706 1.15204C16.8172 0.882391 17.6484 1.27272 17.9181 2.01934L22.2263 13.9501C22.4958 14.6967 22.1055 15.5282 21.359 15.7977Z" fill="#FF902A"/>
<path d="M40.6978 15.4257C40.6978 15.9996 40.4622 16.5221 40.083 16.9011C39.706 17.2781 39.1835 17.5139 38.6096 17.5139H2.90933C1.75977 17.5139 0.821136 16.5733 0.821136 15.4257C0.821136 14.8518 1.05674 14.3273 1.43392 13.9503C1.81308 13.5711 2.33563 13.3355 2.90933 13.3355H38.6094C39.7572 13.3354 40.6978 14.276 40.6978 15.4257Z" fill="#019934"/>
<path d="M2.92574 17.5139L6.34181 31.1107C6.61038 32.1824 7.57351 32.9325 8.67804 32.9325H32.8409C33.9455 32.9325 34.9066 32.1824 35.1772 31.1107L38.5932 17.5139H2.92574ZM12.5655 31.1229C11.7746 31.2663 11.0101 30.7357 10.8667 29.9445L9.28686 21.1984C9.14546 20.4074 9.67611 19.643 10.4672 19.4996C10.5553 19.4832 10.6414 19.4771 10.7275 19.4771C11.4181 19.4771 12.039 19.9751 12.1662 20.678L13.746 29.4243C13.8873 30.2151 13.3586 30.9795 12.5655 31.1229ZM22.2217 29.7541C22.2217 30.5595 21.5638 31.2173 20.7585 31.2173C19.9551 31.2173 19.2973 30.5595 19.2973 29.7541V20.8686C19.2973 20.0632 19.9551 19.4054 20.7585 19.4054C21.1602 19.4054 21.5269 19.5693 21.7913 19.8357C22.0577 20.1002 22.2217 20.4669 22.2217 20.8686V29.7541ZM32.2301 21.1984L30.6503 29.9445C30.5089 30.7355 29.7444 31.2663 28.9515 31.1229C28.1606 30.9795 27.6297 30.2151 27.7731 29.4242L29.353 20.6778C29.48 19.975 30.1011 19.4769 30.7917 19.4769C30.8778 19.4769 30.9639 19.483 31.0519 19.4994C31.8429 19.643 32.3737 20.4074 32.2301 21.1984Z" fill="#019934"/>
<path d="M38.5927 17.5139L38.4453 18.1013L3.10333 18.2186L2.92626 17.5139H38.5927Z" fill="#09160C"/>
<path d="M32.4884 13.8344C32.6379 13.5794 32.7621 13.3652 32.889 13.151C33.0357 12.9026 33.1768 12.6516 33.332 12.4085C33.4561 12.2127 33.5957 12.0248 33.7298 11.8342C34.002 11.4439 34.2771 11.0549 34.5479 10.6646C34.8032 10.2967 35.0388 9.91686 35.3125 9.56203C35.5452 9.26109 35.8485 9.00614 36.0728 8.70126C36.5538 8.04943 37.1815 7.52902 37.7697 6.97182C38.1675 6.59465 38.5766 6.22931 38.9927 5.87055C39.1451 5.73913 39.3341 5.64451 39.5457 5.50784C39.3468 5.43162 39.2241 5.41059 39.0802 5.51572C38.9702 5.59589 38.8221 5.634 38.6909 5.68919C38.3876 5.81798 38.0815 5.94151 37.7796 6.07556C37.4792 6.2096 37.1773 6.34365 36.8881 6.4974C36.7118 6.59202 36.5623 6.73001 36.3944 6.83777C36.1504 6.99284 35.8922 7.13083 35.6524 7.29247C35.469 7.416 35.2983 7.55925 35.1305 7.70118C34.7792 7.99949 34.4139 8.28861 34.088 8.61058C33.7975 8.8997 33.5548 9.22955 33.2868 9.53838C33.1387 9.71054 32.9737 9.87086 32.8312 10.0483C32.6958 10.2165 32.5787 10.3978 32.4602 10.5766C32.3431 10.7527 32.2274 10.9288 32.1217 11.1101C31.9919 11.3322 31.8776 11.5622 31.7507 11.7856C31.6152 12.0222 31.477 12.2574 31.3303 12.4887C31.312 12.5176 31.2372 12.5399 31.1991 12.5307C31.1497 12.5176 31.0778 12.4742 31.0707 12.4348C30.996 12.0458 30.6998 11.7751 30.4614 11.4873C30.1722 11.1364 29.828 10.8197 29.4796 10.5161C29.2609 10.3256 28.9929 10.1823 28.7447 10.022C28.5796 9.91555 28.416 9.80778 28.2439 9.71316C28.0238 9.59489 27.7967 9.48844 27.571 9.37805C27.4102 9.30052 27.2536 9.20852 27.0844 9.15333C26.8502 9.07842 26.6076 9.0298 26.3664 8.97723C26.3353 8.97066 26.293 9.01009 26.2563 9.02848C26.2803 9.05871 26.2972 9.09682 26.3283 9.11785C26.6513 9.33994 26.98 9.55546 27.2988 9.78281C27.4793 9.91029 27.6472 10.0535 27.8165 10.1941C28.1719 10.4898 28.5331 10.7816 28.8787 11.0865C29.1805 11.3532 29.4852 11.62 29.7532 11.9144C30.01 12.1956 30.2385 12.5018 30.4473 12.8159C30.594 13.0367 30.6828 13.2903 30.8168 13.5676C30.5051 13.6281 30.254 13.6543 30.0184 13.7279C29.2567 13.9658 28.4795 13.816 27.7093 13.8199C27.4539 13.8212 27.1972 13.6793 26.9405 13.6044C26.7698 13.5545 26.5878 13.5282 26.4284 13.4572C26.1223 13.3192 25.8247 13.1655 25.5327 13.0038C25.1293 12.7804 24.8062 12.469 24.5213 12.126C24.3845 11.9617 24.2674 11.7803 24.1573 11.5977C23.9641 11.2744 23.7694 10.9511 23.6044 10.616C23.5155 10.436 23.4915 10.2296 23.4309 10.0364C23.3547 9.79727 23.2503 9.56335 23.1967 9.32023C23.1516 9.10865 23.1643 8.88524 23.1459 8.6684C23.1008 8.15851 23.0486 7.64993 23.0035 7.14003C22.995 7.04541 23.0049 6.95079 23.0035 6.85617C23.0006 6.69716 23.0825 6.64196 23.2517 6.60648C24.1291 6.41855 25.0206 6.47243 25.9009 6.5158C26.3114 6.53551 26.7472 6.56574 27.1478 6.73264C27.358 6.82069 27.6063 6.82463 27.8278 6.89297C28.0196 6.95211 28.2016 7.0441 28.3821 7.12952C28.66 7.26093 28.9534 7.37527 29.2073 7.53954C29.5769 7.77871 29.9662 8.00081 30.2216 8.36877C30.3485 8.55144 30.522 8.70651 30.6744 8.87473C30.6842 8.88524 30.6998 8.89181 30.711 8.90101C30.7872 8.9654 30.7689 9.16647 30.9283 9.08631C31.0059 9.0482 31.0242 8.88524 31.0439 8.77485C31.1032 8.44368 31.1187 8.102 31.209 7.78003C31.2993 7.45806 31.4558 7.15186 31.5899 6.84172C31.6886 6.61305 31.7775 6.3765 31.9044 6.16229C32.0793 5.86923 32.2641 5.57486 32.487 5.31334C32.7748 4.97692 33.0936 4.6602 33.4236 4.35795C33.7171 4.08986 34.0344 3.84279 34.3589 3.60624C34.665 3.38284 34.9838 3.17257 35.3139 2.98333C35.5353 2.85717 35.7878 2.77832 36.0262 2.67976C36.1391 2.63376 36.2505 2.58514 36.3648 2.54308C36.6187 2.45109 36.8754 2.36304 37.1307 2.27368C37.4707 2.15409 37.805 2.01611 38.152 1.91754C38.4271 1.84001 38.7191 1.81767 38.9998 1.75853C39.3228 1.69151 39.6416 1.61003 39.9618 1.53512C39.9914 1.52855 40.0211 1.51804 40.0521 1.51672C40.8223 1.46153 41.5939 1.40896 42.3641 1.35114C42.7647 1.32091 43.1639 1.27097 43.5645 1.24863C43.8579 1.23286 43.999 1.35508 43.999 1.62711C44.0004 2.83746 44.0032 4.0478 43.9835 5.25815C43.9778 5.59457 43.9003 5.92969 43.8495 6.2648C43.8114 6.51712 43.7761 6.77075 43.7112 7.01781C43.6492 7.25699 43.5504 7.48828 43.47 7.72483C43.4587 7.759 43.463 7.79843 43.4517 7.83259C43.3642 8.10331 43.2739 8.3714 43.1879 8.64212C43.1286 8.82742 43.0807 9.01666 43.0186 9.20064C42.9693 9.34388 42.9128 9.48713 42.8437 9.6238C42.7718 9.76836 42.6815 9.90635 42.5983 10.0456C42.4431 10.3072 42.2922 10.5726 42.1285 10.8302C42.0086 11.0194 41.8817 11.2087 41.7378 11.3835C41.5953 11.5569 41.4387 11.7199 41.2723 11.8736C41.0156 12.1115 40.756 12.3494 40.4781 12.5649C40.2411 12.7476 39.9788 12.9013 39.7234 13.0643C39.5471 13.1773 39.3694 13.2877 39.186 13.3889C39.0647 13.4559 38.9377 13.519 38.8051 13.5624C38.6161 13.6241 38.4172 13.6622 38.2254 13.72C37.9813 13.7936 37.7429 13.8817 37.4989 13.954C37.3198 14.0065 37.135 14.0762 36.9516 14.0841C35.9275 14.1301 34.909 14.3154 33.8779 14.2207C33.5337 14.1892 33.1881 14.155 32.8538 14.0801C32.7127 14.0446 32.5914 13.9053 32.4884 13.8344Z" fill="#019934"/>
</svg>
