<svg width="24" height="24" viewBox="0 0 24 24" fill="none" xmlns="http://www.w3.org/2000/svg">
<path d="M23.3337 2.66699H12.667V21.3337H23.3337C23.7023 21.3337 24.0003 21.0357 24.0003 20.667V3.33366C24.0003 2.96499 23.7023 2.66699 23.3337 2.66699Z" fill="#4CAF50"/>
<path d="M17.3337 6H22.0003V8H17.3337V6ZM17.3337 12.6667H22.0003V14.6667H17.3337V12.6667ZM17.3337 16H22.0003V18H17.3337V16ZM17.3337 9.33333H22.0003V11.3333H17.3337V9.33333ZM12.667 6H16.0003V8H12.667V6ZM12.667 12.6667H16.0003V14.6667H12.667V12.6667ZM12.667 16H16.0003V18H12.667V16ZM12.667 9.33333H16.0003V11.3333H12.667V9.33333Z" fill="white"/>
<path d="M14 24L0 21.3333V2.66667L14 0V24Z" fill="#2E7D32"/>
<path d="M8.75268 16.6663L7.14535 13.6257C7.08401 13.5117 7.02135 13.3037 6.95601 13.0003H6.93135C6.90068 13.1437 6.82868 13.361 6.71535 13.653L5.10135 16.6663H2.59668L5.57135 11.999L2.84935 7.33301H5.40735L6.74135 10.1303C6.84535 10.351 6.93868 10.6137 7.02135 10.9163H7.04801C7.10001 10.7357 7.19735 10.463 7.34068 10.103L8.82468 7.33301H11.168L8.36868 11.959L11.246 16.665H8.75268V16.6663Z" fill="white"/>
</svg>
