<svg width="22" height="26" viewBox="0 0 22 26" fill="none" xmlns="http://www.w3.org/2000/svg">
<path d="M16.8509 0H0.816406V26H21.1837V4.33279L16.8509 0Z" fill="#E8E8E8"/>
<path d="M17.7245 12.8579C17.4121 12.3011 16.3326 12.1261 15.8374 12.0474C15.4471 11.9853 15.0485 11.9668 14.6537 11.9671C14.3437 11.9651 14.0383 11.9804 13.7367 11.9975C13.6256 12.005 13.5156 12.0146 13.4056 12.0241C13.293 11.9075 13.1841 11.787 13.0787 11.6637C12.4081 10.8699 11.8666 9.96965 11.4254 9.03414C11.5425 8.58213 11.6363 8.11039 11.6929 7.62047C11.7962 6.72629 11.8317 5.70726 11.4966 4.85477C11.381 4.56054 11.0725 4.20234 10.7166 4.38071C10.3075 4.58584 10.1924 5.167 10.159 5.57897C10.1322 5.91196 10.151 6.24581 10.2069 6.57322C10.2638 6.90287 10.3555 7.21587 10.4553 7.52845C10.5484 7.81505 10.6511 8.09941 10.763 8.38112C10.692 8.60288 10.6166 8.82078 10.5375 9.03311C10.3529 9.51703 10.1534 9.97677 9.96145 10.419C9.86026 10.6383 9.76121 10.8529 9.66431 11.0628C9.35765 11.7364 9.02474 12.3976 8.65111 13.0369C7.77958 13.3443 6.99749 13.7007 6.34798 14.1195C5.99955 14.3446 5.69178 14.5891 5.43545 14.8573C5.19345 15.1104 4.94751 15.439 4.92598 15.8026C4.91389 16.0079 4.99519 16.2072 5.16335 16.3289C5.39463 16.5017 5.70112 16.4902 5.96945 16.434C6.84844 16.2496 7.52343 15.494 8.09824 14.8572C8.49418 14.4186 8.94482 13.8616 9.41622 13.188C9.41725 13.1864 9.41828 13.1849 9.41939 13.1833C10.2279 12.9327 11.1078 12.721 12.0417 12.5655C12.4683 12.4947 12.9063 12.4368 13.353 12.3962C13.6671 12.6904 14.0065 12.9583 14.3768 13.182C14.6652 13.3595 14.972 13.5093 15.293 13.621C15.6177 13.7271 15.9443 13.8137 16.2816 13.8685C16.4519 13.8929 16.6261 13.9039 16.804 13.8972C17.2012 13.8822 17.7712 13.7299 17.8086 13.2481C17.8201 13.1006 17.7883 12.9713 17.7245 12.8579ZM8.21693 13.742C8.03093 14.0302 7.85153 14.2893 7.6825 14.5173C7.26856 15.0806 6.79579 15.7496 6.11129 15.9997C5.98129 16.0472 5.81012 16.0963 5.62969 16.0856C5.46898 16.0762 5.31051 16.0053 5.3178 15.8228C5.3214 15.7273 5.36814 15.6054 5.43983 15.4857C5.51829 15.3544 5.61545 15.234 5.72068 15.1233C5.94613 14.8864 6.23118 14.6569 6.55911 14.4443C7.06206 14.118 7.66252 13.8243 8.33184 13.5622C8.29334 13.6231 8.25492 13.6836 8.21693 13.742ZM10.5514 6.51628C10.4997 6.21494 10.4919 5.90939 10.5237 5.61559C10.5394 5.46869 10.5694 5.32531 10.6127 5.19093C10.6494 5.07688 10.7286 4.79851 10.855 4.76275C11.0634 4.70375 11.1275 5.15114 11.151 5.27772C11.2853 5.99772 11.167 6.79842 11.0059 7.5047C10.9802 7.61704 10.9517 7.72757 10.9224 7.83768C10.8725 7.70039 10.8249 7.56267 10.7811 7.42426C10.6868 7.12197 10.6005 6.81617 10.5514 6.51628ZM11.982 12.2001C11.1991 12.3271 10.4543 12.4933 9.75418 12.6896C9.83848 12.6661 10.2237 11.936 10.3096 11.7845C10.7145 11.0714 11.0457 10.323 11.2836 9.53796C11.7038 10.369 12.2138 11.164 12.8403 11.8717C12.8981 11.9359 12.9567 11.9994 13.0164 12.0621C12.6653 12.0999 12.3198 12.1459 11.982 12.2001ZM17.2769 13.203C17.2483 13.3578 16.9177 13.4463 16.7634 13.4706C16.3075 13.5423 15.8252 13.4849 15.3889 13.3384C15.0895 13.2379 14.8008 13.101 14.5265 12.9364C14.2538 12.7716 13.9986 12.5778 13.7602 12.3641C14.0542 12.3464 14.3519 12.3349 14.651 12.3405C14.9501 12.3435 15.2515 12.3586 15.5493 12.3975C16.1076 12.4597 16.7333 12.6514 17.1728 13.0137C17.2593 13.0851 17.2869 13.1483 17.2769 13.203Z" fill="#FB3449"/>
<path d="M17.5214 2.16644H0.816406V0H16.8509L17.5214 2.16644Z" fill="#FB3449"/>
<path d="M8.87752 20.6797C8.87752 21.1395 8.74202 21.4945 8.47087 21.7449C8.19971 21.9954 7.81467 22.1206 7.31557 22.1206H7.00316V23.4856H5.8916V19.3711H7.31565C7.83533 19.3711 8.2256 19.4846 8.48639 19.7116C8.74717 19.9386 8.87752 20.2613 8.87752 20.6797ZM7.00325 21.2144H7.20589C7.37285 21.2144 7.5056 21.1676 7.60414 21.0737C7.70267 20.9799 7.75189 20.8504 7.75189 20.6853C7.75189 20.4076 7.59805 20.2688 7.29036 20.2688H7.00325V21.2144Z" fill="#09160C"/>
<path d="M13.0258 21.3411C13.0258 22.0277 12.8367 22.5568 12.4587 22.9283C12.0807 23.2998 11.5491 23.4856 10.8644 23.4856H9.5332V19.3711H10.9573C11.6177 19.3711 12.1275 19.5399 12.4868 19.8777C12.846 20.2154 13.0258 20.7032 13.0258 21.3411ZM11.8719 21.3805C11.8719 21.0034 11.7973 20.7239 11.6482 20.5418C11.4991 20.3599 11.2725 20.2689 10.9685 20.2689H10.6449V22.5737H10.8926C11.2304 22.5737 11.478 22.4757 11.6356 22.2796C11.7931 22.0836 11.8719 21.7839 11.8719 21.3805Z" fill="#09160C"/>
<path d="M14.8574 23.4856H13.7627V19.3711H16.1943V20.2632H14.8574V21.0484H16.0901V21.9405H14.8574V23.4856Z" fill="#09160C"/>
<path d="M16.8506 4.33279H21.1834L16.8506 0V4.33279Z" fill="#D1D3D3"/>
</svg>
