<svg width="62" height="54" viewBox="0 0 62 54" fill="none" xmlns="http://www.w3.org/2000/svg">
<path fill-rule="evenodd" clip-rule="evenodd" d="M54.25 4.28571H7.75C6.72229 4.28571 5.73666 4.68457 5.00996 5.39452C4.28326 6.10448 3.875 7.06739 3.875 8.07143V45.9286C3.875 46.9326 4.28326 47.8955 5.00996 48.6055C5.73666 49.3154 6.72229 49.7143 7.75 49.7143H54.25C55.2777 49.7143 56.2633 49.3154 56.99 48.6055C57.7167 47.8955 58.125 46.9326 58.125 45.9286V8.07143C58.125 7.06739 57.7167 6.10448 56.99 5.39452C56.2633 4.68457 55.2777 4.28571 54.25 4.28571V4.28571ZM7.75 0.5C5.69457 0.5 3.72333 1.2977 2.26992 2.71762C0.816516 4.13754 0 6.06336 0 8.07143V45.9286C0 47.9366 0.816516 49.8625 2.26992 51.2824C3.72333 52.7023 5.69457 53.5 7.75 53.5H54.25C55.2677 53.5 56.2755 53.3042 57.2158 52.9237C58.1561 52.5432 59.0104 51.9855 59.7301 51.2824C60.4497 50.5793 61.0206 49.7446 61.4101 48.826C61.7995 47.9074 62 46.9229 62 45.9286V8.07143C62 6.06336 61.1835 4.13754 59.7301 2.71762C58.2767 1.2977 56.3054 0.5 54.25 0.5H7.75V0.5Z" fill="#C3C4CD"/>
<path d="M41.2532 25.66C41.541 25.3796 41.9118 25.1947 42.3131 25.1315C42.7143 25.0684 43.1257 25.1301 43.4891 25.3079L58.125 32.6787V49.7144H3.875V42.143L14.1282 33.2314C14.445 32.9231 14.8611 32.7313 15.306 32.6885C15.751 32.6457 16.1973 32.7546 16.5695 32.9967L26.877 39.7087L41.2532 25.6637V25.66Z" fill="#C3C4CD"/>
<path fill-rule="evenodd" clip-rule="evenodd" d="M17.4375 23.2146C18.2008 23.2146 18.9566 23.0677 19.6618 22.7823C20.3671 22.4969 21.0078 22.0787 21.5476 21.5514C22.0873 21.024 22.5154 20.398 22.8075 19.7091C23.0997 19.0201 23.25 18.2817 23.25 17.536C23.25 16.7903 23.0997 16.0519 22.8075 15.3629C22.5154 14.6739 22.0873 14.0479 21.5476 13.5206C21.0078 12.9933 20.3671 12.5751 19.6618 12.2897C18.9566 12.0043 18.2008 11.8574 17.4375 11.8574C15.8959 11.8574 14.4175 12.4557 13.3274 13.5206C12.2374 14.5856 11.625 16.0299 11.625 17.536C11.625 19.042 12.2374 20.4864 13.3274 21.5514C14.4175 22.6163 15.8959 23.2146 17.4375 23.2146Z" fill="#C3C4CD"/>
</svg>
