<svg width="355" height="73" viewBox="0 0 355 73" fill="none" xmlns="http://www.w3.org/2000/svg">
<path d="M69.815 35.2552H58.4019L58.1385 34.5231H51.1076L51.371 35.2552H40.716L33.6038 15.5552C33.1287 14.2506 31.8762 13.3721 30.4901 13.3721C30.1159 13.3721 29.742 13.4405 29.3709 13.5706C27.6597 14.1854 26.7683 16.0823 27.3864 17.8003L33.6915 35.2552H6.1476C4.96321 35.2552 3.84402 35.7204 3.00142 36.563C2.15883 37.4056 1.69336 38.5247 1.69336 39.7124C1.69336 41.9735 3.38851 43.8476 5.59764 44.1306L11.5614 67.8615C12.121 70.0999 14.1251 71.6649 16.4351 71.6649H59.5275C61.8343 71.6649 63.8385 70.1034 64.4045 67.8615L70.365 44.1338C71.3444 44.0134 72.2487 43.571 72.9612 42.8617C73.807 42.0159 74.2725 40.8967 74.2725 39.7124C74.2725 37.2527 72.2715 35.2552 69.815 35.2552ZM39.3071 48.0966C39.6617 48.448 39.8602 48.9199 39.8602 49.4175V65.2653C39.8602 66.3 39.0176 67.1426 37.9797 67.1426C36.945 67.1426 36.1056 66.3 36.1056 65.2653V49.4175C36.1056 48.3828 36.945 47.5402 37.9797 47.5402C38.4808 47.5402 38.9492 47.7355 39.3071 48.0966ZM23.2382 66.9861C23.131 67.009 23.0169 67.0186 22.9064 67.0186C21.9986 67.0186 21.2212 66.3678 21.0583 65.4763L18.2408 49.8791C18.0587 48.8608 18.7387 47.8814 19.7602 47.696C19.8611 47.6764 19.9684 47.6668 20.0921 47.6668C20.9835 47.6668 21.7773 48.3304 21.9369 49.209L24.7545 64.8062C24.9366 65.8249 24.2566 66.804 23.2382 66.9861ZM55.8741 47.6671C55.9945 47.6671 56.1051 47.6767 56.2059 47.6963C56.6971 47.784 57.1266 48.0641 57.4131 48.4772C57.6993 48.8903 57.8102 49.3883 57.7189 49.8762L54.9014 65.4767C54.7421 66.3681 53.9676 67.0189 53.0565 67.0189C52.946 67.0189 52.832 67.0093 52.7215 66.9865C52.2335 66.8988 51.804 66.6222 51.5178 66.2088C51.2316 65.7956 51.1208 65.2977 51.2088 64.8066L54.0263 49.2093C54.1854 48.3308 54.9791 47.6671 55.8741 47.6671Z" fill="white"/>
<path d="M63.6789 34.5234H44.9062V35.9844H63.6789V34.5234Z" fill="#534F70"/>
<path d="M39.0534 40.3758C37.7219 40.8567 36.2394 40.1605 35.7585 38.829L28.0752 17.5517C27.5943 16.2202 28.2904 14.7377 29.6219 14.2568C30.9534 13.7759 32.4359 14.4721 32.9168 15.8036L40.6001 37.0809C41.0807 38.4124 40.3846 39.8952 39.0534 40.3758Z" fill="white"/>
<path d="M73.5417 39.712C73.5417 40.7354 73.1215 41.6673 72.4453 42.3432C71.773 43.0156 70.8411 43.4361 69.8176 43.4361H6.14986C4.09974 43.4361 2.42578 41.7586 2.42578 39.712C2.42578 38.6885 2.84595 37.7531 3.51862 37.0807C4.19482 36.4045 5.12672 35.9844 6.14986 35.9844H69.8173C71.8642 35.9841 73.5417 37.6615 73.5417 39.712Z" fill="white"/>
<path d="M6.17871 43.4365L12.2709 67.6849C12.7499 69.5963 14.4675 70.9339 16.4373 70.9339H59.5294C61.4992 70.9339 63.2133 69.5963 63.6958 67.6849L69.788 43.4365H6.17871ZM23.3702 67.7068C21.9597 67.9625 20.5964 67.0161 20.3407 65.6053L17.5231 50.0074C17.2709 48.5968 18.2173 47.2335 19.6282 46.9778C19.7853 46.9486 19.9388 46.9377 20.0924 46.9377C21.324 46.9377 22.4313 47.8259 22.6581 49.0793L25.4756 64.6775C25.7274 66.0877 24.7846 67.4511 23.3702 67.7068ZM40.591 65.2657C40.591 66.7019 39.4178 67.8751 37.9816 67.8751C36.5489 67.8751 35.3757 66.7019 35.3757 65.2657V49.4192C35.3757 47.983 36.5489 46.8098 37.9816 46.8098C38.6979 46.8098 39.352 47.1021 39.8236 47.5772C40.2987 48.0488 40.591 48.7028 40.591 49.4192V65.2657ZM58.4401 50.0074L55.6225 65.6053C55.3703 67.0158 54.007 67.9625 52.593 67.7068C51.1824 67.4511 50.2357 66.0877 50.4914 64.6772L53.309 49.079C53.5355 47.8256 54.6431 46.9373 55.8747 46.9373C56.0282 46.9373 56.1818 46.9483 56.3389 46.9775C57.7494 47.2335 58.6961 48.5968 58.4401 50.0074Z" fill="white"/>
<path d="M69.7871 43.4365L69.5243 44.4841L6.49546 44.6932L6.17969 43.4365H69.7871Z" fill="#02B001"/>
<path d="M72.7661 32.5064C72.7507 32.5372 72.7336 32.5713 72.7147 32.6002C72.6822 32.6651 72.6328 32.764 72.5592 32.8938C72.5403 32.9227 72.5232 32.9571 72.5011 32.9927C72.4738 33.039 72.4429 33.0917 72.4105 33.1482C72.3745 33.2115 72.3353 33.2729 72.2961 33.3342C72.2174 33.4573 72.1268 33.5954 72.0227 33.7441C70.0645 36.5906 63.7359 43.4846 47.6124 45.2633C39.2301 31.0451 41.1621 21.7755 42.2613 18.6573C42.2767 18.6095 42.2938 18.5584 42.3143 18.5086C42.3468 18.418 42.3792 18.3277 42.4152 18.2388C42.4595 18.1157 42.5058 18.0065 42.5469 17.9159C42.6699 17.6274 42.7502 17.4839 42.7502 17.4839C45.0474 12.8937 50.6279 11.036 55.2145 13.3316C57.9671 14.709 59.7355 17.2683 60.2125 20.0865C62.7545 18.7791 65.8628 18.6609 68.6154 20.0383C73.2052 22.3361 75.0629 27.9166 72.7661 32.5064Z" fill="#FF902A"/>
<path d="M47.6115 45.995C47.3548 45.995 47.1145 45.8598 46.9821 45.6353C38.5054 31.2568 40.3747 21.8093 41.5716 18.4148C41.5857 18.3689 41.6101 18.2982 41.6381 18.2304C41.6615 18.1629 41.6978 18.063 41.7373 17.9647C41.7788 17.8485 41.8328 17.7209 41.8803 17.6149C42.0085 17.3139 42.1023 17.1449 42.1126 17.1263C43.2944 14.7633 45.3525 12.9789 47.8922 12.133C50.4306 11.2869 53.147 11.4806 55.5408 12.6788C58.1043 13.9615 59.9944 16.3007 60.7323 19.0476C63.3728 17.9911 66.378 18.1026 68.9421 19.3856C73.884 21.8587 75.8923 27.8919 73.4191 32.8337C73.3995 32.8726 73.3777 32.915 73.3542 32.9548C73.3163 33.03 73.2653 33.1296 73.1943 33.2549L72.5299 32.9426L73.167 33.3015L73.0436 33.5135C73.0028 33.5848 72.9572 33.6571 72.9113 33.7287C72.8277 33.8594 72.7314 34.0066 72.6205 34.1649C70.5916 37.1135 64.0927 44.1813 47.6921 45.9909C47.6651 45.9934 47.6381 45.995 47.6115 45.995ZM51.0667 13.0772C50.1566 13.0772 49.243 13.2243 48.3541 13.5201C46.1852 14.2426 44.4267 15.7669 43.4033 17.8122C43.3785 17.8578 43.3143 17.9789 43.2189 18.2031C43.1781 18.2937 43.1392 18.3849 43.1026 18.4871C43.0599 18.594 43.031 18.6747 43.0021 18.7563C42.9767 18.8195 42.9667 18.8517 42.9571 18.8815C41.8328 22.0708 40.1119 30.8681 48.0024 44.4839C63.4547 42.6613 69.5206 36.0914 71.4204 33.3304C71.5219 33.1858 71.6067 33.0563 71.6803 32.9413C71.7127 32.8903 71.7455 32.8389 71.7757 32.7865L71.8939 32.5845C71.91 32.5555 71.9257 32.5279 71.9418 32.5029C71.9867 32.4222 72.0298 32.3361 72.0587 32.2786C72.0706 32.2552 72.0866 32.2263 72.1008 32.2041L72.1123 32.1797L72.1127 32.1794C74.2251 27.9583 72.5097 22.8054 68.288 20.6927C65.8585 19.4771 62.9649 19.4935 60.5469 20.7373C60.3394 20.844 60.094 20.8456 59.8852 20.7408C59.6767 20.6368 59.5309 20.4392 59.492 20.2095C59.0381 17.5285 57.3163 15.2018 54.8868 13.9859C53.6802 13.3823 52.3776 13.0772 51.0667 13.0772Z" fill="white"/>
<path d="M62.0103 16.2846C62.0103 16.2846 51.3347 9.35137 62.0103 0.675781C72.6907 9.35137 62.0103 16.2846 62.0103 16.2846Z" fill="#019934"/>
<path d="M62.0109 16.8324C61.9072 16.8324 61.8031 16.8028 61.7122 16.7437C61.5191 16.6181 56.9759 13.6162 56.7282 8.96693C56.5689 5.97399 58.23 3.04144 61.6653 0.249584C61.8667 0.086076 62.1552 0.086076 62.3566 0.249584C65.7932 3.04079 67.4549 5.97399 67.2956 8.96661C67.0479 13.6158 62.5027 16.6184 62.3094 16.7437C62.2188 16.8028 62.1147 16.8324 62.0109 16.8324ZM62.0109 1.3874C59.0996 3.85287 57.691 6.37971 57.8227 8.90268C58.0029 12.3489 61.036 14.8828 62.0109 15.6117C62.9862 14.8831 66.0206 12.3492 66.2008 8.90268C66.3325 6.37971 64.9236 3.85287 62.0109 1.3874Z" fill="white"/>
<path d="M62.0112 16.8324C61.7086 16.8324 61.4629 16.587 61.4629 16.2841V0.675301C61.4629 0.372698 61.7083 0.126953 62.0112 0.126953C62.3138 0.126953 62.5593 0.372377 62.5593 0.675301V16.2844C62.5596 16.587 62.3138 16.8324 62.0112 16.8324Z" fill="white"/>
<path d="M62.0113 8.55688C61.8526 8.55688 61.7017 8.48814 61.5973 8.368L58.2856 4.5543C58.0871 4.3259 58.1115 3.97929 58.3403 3.78076C58.569 3.58224 58.9149 3.60666 59.1138 3.83537L62.0113 7.17236L64.9089 3.83537C65.1074 3.60666 65.4527 3.58224 65.6824 3.78076C65.9111 3.97929 65.9355 4.3259 65.737 4.5543L62.4254 8.368C62.3213 8.48814 62.1703 8.55688 62.0113 8.55688Z" fill="white"/>
<path d="M62.0108 13.8395C61.8656 13.8395 61.7265 13.782 61.6231 13.6788L56.8785 8.93613C56.6642 8.72219 56.6642 8.37493 56.8785 8.16099C57.0927 7.94673 57.4393 7.94673 57.6536 8.16099L61.9858 12.4916L66.317 7.58887C66.5168 7.36144 66.8637 7.34024 67.0908 7.54101C67.318 7.74146 67.3392 8.08775 67.1387 8.31486L62.4217 13.6544C62.3218 13.7678 62.1788 13.8346 62.0279 13.8395C62.0224 13.8395 62.0166 13.8395 62.0108 13.8395Z" fill="white"/>
<path d="M107.135 38.3125C106.936 37.6212 106.656 37.0104 106.297 36.4801C105.937 35.9403 105.496 35.4858 104.975 35.1165C104.464 34.7377 103.877 34.4489 103.214 34.25C102.561 34.0511 101.836 33.9517 101.041 33.9517C99.5541 33.9517 98.2473 34.321 97.1204 35.0597C96.003 35.7983 95.1317 36.8731 94.5067 38.2841C93.8817 39.6856 93.5692 41.3996 93.5692 43.4261C93.5692 45.4527 93.877 47.1761 94.4925 48.5966C95.1081 50.017 95.9793 51.1013 97.1062 51.8494C98.2331 52.5881 99.5636 52.9574 101.098 52.9574C102.49 52.9574 103.678 52.7112 104.663 52.2188C105.657 51.7169 106.415 51.0114 106.936 50.1023C107.466 49.1932 107.731 48.1184 107.731 46.8778L108.981 47.0625H101.481V42.4318H113.654V46.0966C113.654 48.6534 113.115 50.8504 112.035 52.6875C110.956 54.5152 109.469 55.9261 107.575 56.9205C105.681 57.9053 103.512 58.3977 101.069 58.3977C98.342 58.3977 95.9461 57.7964 93.8817 56.5938C91.8174 55.3816 90.2075 53.6629 89.0522 51.4375C87.9064 49.2027 87.3335 46.5511 87.3335 43.483C87.3335 41.125 87.6744 39.0227 88.3562 37.1761C89.0475 35.3201 90.0134 33.7481 91.2539 32.4602C92.4944 31.1723 93.9386 30.1922 95.5863 29.5199C97.234 28.8475 99.0191 28.5114 100.941 28.5114C102.589 28.5114 104.123 28.7528 105.544 29.2358C106.964 29.7093 108.224 30.3816 109.322 31.2528C110.43 32.1241 111.334 33.161 112.035 34.3636C112.736 35.5568 113.186 36.8731 113.385 38.3125H107.135ZM118.161 58V36.1818H124.027V39.9886H124.255C124.652 38.6345 125.32 37.6117 126.257 36.9205C127.195 36.2197 128.275 35.8693 129.496 35.8693C129.799 35.8693 130.126 35.8883 130.476 35.9261C130.827 35.964 131.134 36.0161 131.4 36.0824V41.4517C131.115 41.3665 130.722 41.2907 130.221 41.2244C129.719 41.1581 129.259 41.125 128.843 41.125C127.953 41.125 127.157 41.3191 126.456 41.7074C125.765 42.0862 125.216 42.6165 124.809 43.2983C124.411 43.9801 124.212 44.7661 124.212 45.6562V58H118.161ZM143.37 58.4261C141.164 58.4261 139.256 57.9574 137.646 57.0199C136.046 56.0729 134.81 54.7566 133.939 53.071C133.067 51.3759 132.632 49.411 132.632 47.1761C132.632 44.9223 133.067 42.9527 133.939 41.267C134.81 39.572 136.046 38.2557 137.646 37.3182C139.256 36.3712 141.164 35.8977 143.37 35.8977C145.577 35.8977 147.48 36.3712 149.081 37.3182C150.69 38.2557 151.931 39.572 152.802 41.267C153.673 42.9527 154.109 44.9223 154.109 47.1761C154.109 49.411 153.673 51.3759 152.802 53.071C151.931 54.7566 150.69 56.0729 149.081 57.0199C147.48 57.9574 145.577 58.4261 143.37 58.4261ZM143.399 53.7386C144.403 53.7386 145.241 53.4545 145.913 52.8864C146.585 52.3087 147.092 51.5227 147.433 50.5284C147.783 49.5341 147.958 48.4025 147.958 47.1335C147.958 45.8646 147.783 44.733 147.433 43.7386C147.092 42.7443 146.585 41.9583 145.913 41.3807C145.241 40.803 144.403 40.5142 143.399 40.5142C142.386 40.5142 141.533 40.803 140.842 41.3807C140.16 41.9583 139.644 42.7443 139.294 43.7386C138.953 44.733 138.782 45.8646 138.782 47.1335C138.782 48.4025 138.953 49.5341 139.294 50.5284C139.644 51.5227 140.16 52.3087 140.842 52.8864C141.533 53.4545 142.386 53.7386 143.399 53.7386ZM167.902 58.4261C165.667 58.4261 163.744 57.9527 162.135 57.0057C160.534 56.0492 159.303 54.7235 158.441 53.0284C157.589 51.3333 157.163 49.3826 157.163 47.1761C157.163 44.9413 157.594 42.9811 158.456 41.2955C159.327 39.6004 160.563 38.2794 162.163 37.3324C163.763 36.3759 165.667 35.8977 167.873 35.8977C169.777 35.8977 171.443 36.2434 172.873 36.9347C174.303 37.6259 175.435 38.5966 176.268 39.8466C177.101 41.0966 177.561 42.5644 177.646 44.25H171.936C171.775 43.161 171.349 42.285 170.657 41.6222C169.975 40.9498 169.081 40.6136 167.973 40.6136C167.035 40.6136 166.216 40.8693 165.515 41.3807C164.824 41.8826 164.284 42.6165 163.896 43.5824C163.508 44.5483 163.314 45.7178 163.314 47.0909C163.314 48.483 163.503 49.6667 163.882 50.642C164.27 51.6174 164.815 52.3608 165.515 52.8722C166.216 53.3835 167.035 53.6392 167.973 53.6392C168.664 53.6392 169.284 53.4972 169.833 53.2131C170.392 52.929 170.851 52.517 171.211 51.9773C171.581 51.428 171.822 50.7699 171.936 50.0028H177.646C177.551 51.6695 177.097 53.1373 176.282 54.4062C175.477 55.6657 174.365 56.6506 172.944 57.3608C171.524 58.071 169.843 58.4261 167.902 58.4261ZM191.463 58.4261C189.219 58.4261 187.287 57.9716 185.668 57.0625C184.058 56.1439 182.818 54.8466 181.946 53.1705C181.075 51.4848 180.64 49.4915 180.64 47.1903C180.64 44.946 181.075 42.9763 181.946 41.2812C182.818 39.5862 184.044 38.2652 185.625 37.3182C187.216 36.3712 189.082 35.8977 191.222 35.8977C192.661 35.8977 194.001 36.1297 195.242 36.5938C196.492 37.0483 197.581 37.7348 198.509 38.6534C199.446 39.572 200.176 40.7273 200.696 42.1193C201.217 43.5019 201.478 45.1212 201.478 46.9773V48.6392H183.054V44.8892H195.782C195.782 44.018 195.592 43.2462 195.213 42.5739C194.835 41.9015 194.309 41.3759 193.637 40.9972C192.974 40.6089 192.202 40.4148 191.321 40.4148C190.403 40.4148 189.588 40.6278 188.878 41.054C188.177 41.4706 187.628 42.0341 187.23 42.7443C186.833 43.4451 186.629 44.2263 186.62 45.0881V48.6534C186.62 49.733 186.819 50.6657 187.216 51.4517C187.623 52.2377 188.196 52.8438 188.935 53.2699C189.674 53.696 190.55 53.9091 191.563 53.9091C192.235 53.9091 192.851 53.8144 193.409 53.625C193.968 53.4356 194.446 53.1515 194.844 52.7727C195.242 52.3939 195.545 51.9299 195.753 51.3807L201.35 51.75C201.066 53.0947 200.483 54.2689 199.603 55.2727C198.731 56.267 197.605 57.0436 196.222 57.6023C194.849 58.1515 193.263 58.4261 191.463 58.4261ZM205.426 58V36.1818H211.293V39.9886H211.52C211.918 38.6345 212.586 37.6117 213.523 36.9205C214.461 36.2197 215.54 35.8693 216.762 35.8693C217.065 35.8693 217.391 35.8883 217.742 35.9261C218.092 35.964 218.4 36.0161 218.665 36.0824V41.4517C218.381 41.3665 217.988 41.2907 217.486 41.2244C216.984 41.1581 216.525 41.125 216.108 41.125C215.218 41.125 214.423 41.3191 213.722 41.7074C213.031 42.0862 212.481 42.6165 212.074 43.2983C211.676 43.9801 211.478 44.7661 211.478 45.6562V58H205.426ZM226.194 66.1818C225.426 66.1818 224.707 66.1203 224.034 65.9972C223.372 65.8835 222.822 65.7367 222.387 65.5568L223.75 61.0398C224.461 61.2576 225.1 61.3759 225.668 61.3949C226.246 61.4138 226.743 61.2813 227.159 60.9972C227.586 60.7131 227.931 60.2301 228.196 59.5483L228.551 58.625L220.725 36.1818H227.088L231.605 52.2045H231.833L236.392 36.1818H242.799L234.319 60.358C233.911 61.5322 233.357 62.5549 232.657 63.4261C231.965 64.3068 231.089 64.9839 230.029 65.4574C228.968 65.9403 227.69 66.1818 226.194 66.1818ZM271.048 37.2756C270.934 36.1297 270.447 35.2396 269.585 34.6051C268.723 33.9706 267.554 33.6534 266.076 33.6534C265.073 33.6534 264.225 33.7955 263.534 34.0795C262.842 34.3542 262.312 34.7377 261.943 35.2301C261.583 35.7225 261.403 36.2812 261.403 36.9062C261.384 37.4271 261.493 37.8816 261.73 38.2699C261.976 38.6581 262.312 38.9943 262.738 39.2784C263.164 39.553 263.657 39.7945 264.216 40.0028C264.774 40.2017 265.371 40.3722 266.005 40.5142L268.619 41.1392C269.888 41.4233 271.053 41.8021 272.113 42.2756C273.174 42.7491 274.092 43.3314 274.869 44.0227C275.645 44.714 276.247 45.5284 276.673 46.4659C277.109 47.4034 277.331 48.4782 277.341 49.6903C277.331 51.4706 276.877 53.0142 275.977 54.321C275.087 55.6184 273.799 56.6269 272.113 57.3466C270.437 58.0568 268.415 58.4119 266.048 58.4119C263.699 58.4119 261.654 58.0521 259.912 57.3324C258.179 56.6127 256.824 55.5473 255.849 54.1364C254.883 52.7159 254.377 50.9593 254.329 48.8665H260.281C260.347 49.8419 260.627 50.6562 261.119 51.3097C261.621 51.9536 262.288 52.4413 263.122 52.7727C263.965 53.0947 264.916 53.2557 265.977 53.2557C267.019 53.2557 267.923 53.1042 268.69 52.8011C269.467 52.4981 270.068 52.0767 270.494 51.5369C270.92 50.9972 271.133 50.3769 271.133 49.6761C271.133 49.0227 270.939 48.4735 270.551 48.0284C270.172 47.5833 269.613 47.2045 268.875 46.892C268.145 46.5795 267.251 46.2955 266.19 46.0398L263.022 45.2443C260.57 44.6477 258.633 43.715 257.213 42.446C255.792 41.1771 255.087 39.4678 255.096 37.3182C255.087 35.5568 255.556 34.018 256.502 32.7017C257.459 31.3854 258.77 30.358 260.437 29.6193C262.104 28.8807 263.998 28.5114 266.119 28.5114C268.278 28.5114 270.163 28.8807 271.772 29.6193C273.392 30.358 274.651 31.3854 275.551 32.7017C276.45 34.018 276.914 35.5426 276.943 37.2756H271.048ZM287.415 45.3864V58H281.364V28.9091H287.245V40.0312H287.5C287.993 38.7434 288.788 37.7348 289.887 37.0057C290.985 36.267 292.363 35.8977 294.02 35.8977C295.535 35.8977 296.856 36.2292 297.983 36.892C299.12 37.5455 300 38.4877 300.625 39.7188C301.26 40.9403 301.572 42.4034 301.563 44.108V58H295.512V45.1875C295.521 43.8428 295.18 42.7964 294.489 42.0483C293.807 41.3002 292.851 40.9261 291.62 40.9261C290.796 40.9261 290.067 41.1013 289.432 41.4517C288.807 41.8021 288.315 42.3134 287.955 42.9858C287.605 43.6487 287.425 44.4489 287.415 45.3864ZM316.183 58.4261C313.976 58.4261 312.068 57.9574 310.458 57.0199C308.858 56.0729 307.622 54.7566 306.751 53.071C305.88 51.3759 305.444 49.411 305.444 47.1761C305.444 44.9223 305.88 42.9527 306.751 41.267C307.622 39.572 308.858 38.2557 310.458 37.3182C312.068 36.3712 313.976 35.8977 316.183 35.8977C318.389 35.8977 320.293 36.3712 321.893 37.3182C323.503 38.2557 324.743 39.572 325.615 41.267C326.486 42.9527 326.922 44.9223 326.922 47.1761C326.922 49.411 326.486 51.3759 325.615 53.071C324.743 54.7566 323.503 56.0729 321.893 57.0199C320.293 57.9574 318.389 58.4261 316.183 58.4261ZM316.211 53.7386C317.215 53.7386 318.053 53.4545 318.725 52.8864C319.398 52.3087 319.904 51.5227 320.245 50.5284C320.596 49.5341 320.771 48.4025 320.771 47.1335C320.771 45.8646 320.596 44.733 320.245 43.7386C319.904 42.7443 319.398 41.9583 318.725 41.3807C318.053 40.803 317.215 40.5142 316.211 40.5142C315.198 40.5142 314.346 40.803 313.654 41.3807C312.973 41.9583 312.457 42.7443 312.106 43.7386C311.765 44.733 311.595 45.8646 311.595 47.1335C311.595 48.4025 311.765 49.5341 312.106 50.5284C312.457 51.5227 312.973 52.3087 313.654 52.8864C314.346 53.4545 315.198 53.7386 316.211 53.7386ZM330.856 66.1818V36.1818H336.822V39.8466H337.092C337.357 39.2595 337.741 38.6629 338.243 38.0568C338.754 37.4413 339.417 36.9299 340.231 36.5227C341.055 36.1061 342.078 35.8977 343.299 35.8977C344.89 35.8977 346.358 36.3144 347.703 37.1477C349.047 37.9716 350.122 39.2169 350.927 40.8835C351.732 42.5407 352.135 44.6193 352.135 47.1193C352.135 49.553 351.742 51.608 350.956 53.2841C350.179 54.9508 349.118 56.215 347.774 57.0767C346.439 57.929 344.942 58.3551 343.285 58.3551C342.111 58.3551 341.112 58.161 340.288 57.7727C339.474 57.3845 338.806 56.8968 338.285 56.3097C337.764 55.7131 337.367 55.1117 337.092 54.5057H336.907V66.1818H330.856ZM336.779 47.0909C336.779 48.3883 336.959 49.5199 337.319 50.4858C337.679 51.4517 338.2 52.2045 338.882 52.7443C339.564 53.2746 340.392 53.5398 341.368 53.5398C342.352 53.5398 343.186 53.2699 343.868 52.7301C344.549 52.1809 345.065 51.4233 345.416 50.4574C345.776 49.482 345.956 48.3598 345.956 47.0909C345.956 45.8314 345.78 44.7235 345.43 43.767C345.08 42.8106 344.564 42.0625 343.882 41.5227C343.2 40.983 342.362 40.7131 341.368 40.7131C340.383 40.7131 339.549 40.9735 338.868 41.4943C338.195 42.0152 337.679 42.7538 337.319 43.7102C336.959 44.6667 336.779 45.7936 336.779 47.0909Z" fill="white"/>
</svg>
