<svg width="104" height="102" viewBox="0 0 104 102" fill="none" xmlns="http://www.w3.org/2000/svg">
<path d="M96.6791 49.3248H80.6536L80.2837 48.2969H70.4115L70.7814 49.3248H55.8204L45.8341 21.6635C45.167 19.8318 43.4083 18.5982 41.462 18.5982C40.9366 18.5982 40.4115 18.6943 39.8906 18.8769C37.4878 19.7402 36.2361 22.4037 37.104 24.8159L45.9572 49.3248H7.28214C5.61911 49.3248 4.04764 49.9779 2.86452 51.1611C1.68141 52.3442 1.02784 53.9156 1.02784 55.5832C1.02784 58.7581 3.40804 61.3896 6.50994 61.787L14.8837 95.1081C15.6695 98.251 18.4836 100.449 21.7271 100.449H82.2341C85.4731 100.449 88.2872 98.256 89.082 95.1081L97.4513 61.7915C98.8265 61.6223 100.096 61.0012 101.097 60.0053C102.284 58.8177 102.938 57.2462 102.938 55.5832C102.938 52.1295 100.128 49.3248 96.6791 49.3248ZM53.8421 67.3557C54.3401 67.8491 54.6188 68.5117 54.6188 69.2104V91.4627C54.6188 92.9155 53.4357 94.0986 51.9784 94.0986C50.5255 94.0986 49.3469 92.9155 49.3469 91.4627V69.2104C49.3469 67.7576 50.5255 66.5744 51.9784 66.5744C52.682 66.5744 53.3396 66.8487 53.8421 67.3557ZM31.2795 93.879C31.1289 93.911 30.9687 93.9245 30.8136 93.9245C29.5389 93.9245 28.4474 93.0107 28.2187 91.759L24.2625 69.8586C24.0067 68.4287 24.9616 67.0535 26.396 66.7932C26.5376 66.7657 26.6882 66.7522 26.8619 66.7522C28.1136 66.7522 29.2281 67.684 29.4523 68.9177L33.4085 90.8181C33.6642 92.2484 32.7094 93.6232 31.2795 93.879ZM77.1043 66.7526C77.2734 66.7526 77.4286 66.7661 77.5702 66.7937C78.2599 66.9168 78.8629 67.3101 79.2653 67.8902C79.6672 68.4702 79.8228 69.1694 79.6947 69.8545L75.7385 91.7594C75.5148 93.0111 74.4273 93.9249 73.1481 93.9249C72.9929 93.9249 72.8328 93.9114 72.6776 93.8794C71.9925 93.7563 71.3894 93.3679 70.9875 92.7874C70.5856 92.2073 70.43 91.5082 70.5536 90.8186L74.5098 68.9181C74.7331 67.6845 75.8476 66.7526 77.1043 66.7526Z" fill="white"/>
<path d="M96.6787 48.297H79.1914L79.9316 50.3484H96.6787C99.5524 50.3484 101.91 52.7056 101.91 55.5837C101.91 57.0181 101.321 58.3293 100.37 59.2797C99.4243 60.2206 98.118 60.8146 96.6787 60.8146H96.6377L88.0857 94.8623C87.4096 97.5438 85.0023 99.4216 82.2338 99.4216H21.7268C18.9627 99.4216 16.5509 97.5438 15.8793 94.8623L8.51543 65.5475L7.3233 60.8146H7.28225C4.40408 60.8146 2.0559 58.4574 2.0559 55.5837C2.0559 54.1449 2.64543 52.8337 3.59083 51.8878C4.53669 50.9374 5.84745 50.3484 7.28225 50.3484H47.4192L38.068 24.4642C37.3964 22.596 38.3693 20.5125 40.238 19.8409C40.6444 19.6993 41.0558 19.6262 41.4622 19.6262C42.9421 19.6262 44.3358 20.5446 44.8703 22.0109L55.0989 50.3479H72.2438L71.5037 48.2965H56.5427L46.7977 21.3163C45.9844 19.0732 43.8374 17.5748 41.4617 17.5748C40.8176 17.5748 40.178 17.6844 39.5519 17.9082C36.6052 18.9681 35.0798 22.2207 36.1348 25.1579L44.495 48.2965H7.2818C5.34498 48.2965 3.51731 49.0547 2.13799 50.4345C0.758216 51.8143 0 53.6415 0 55.5828C0 59.0456 2.43478 61.9558 5.6783 62.6865L6.52358 66.0486L13.8875 95.359C14.7873 98.9588 18.0128 101.476 21.7268 101.476H82.2338C85.9432 101.476 89.1683 98.9588 90.0731 95.3639L98.2867 62.6869C99.6115 62.3901 100.831 61.7185 101.823 60.7271C103.202 59.3473 103.961 57.5201 103.961 55.5833C103.961 51.563 100.694 48.297 96.6787 48.297ZM72.4942 94.8889C72.7134 94.93 72.9326 94.9485 73.1473 94.9485C74.8834 94.9485 76.4319 93.7013 76.7471 91.9427L80.7033 70.0377C81.0642 68.0599 79.7349 66.1456 77.7566 65.7847C77.5329 65.7437 77.3182 65.7297 77.1035 65.7297C75.3719 65.7297 73.8189 66.9769 73.4991 68.7355L69.5429 90.636C69.187 92.6184 70.5163 94.5326 72.4942 94.8889ZM77.1039 67.7807C77.2135 67.7807 77.3006 67.7897 77.3782 67.8037C77.8076 67.8812 78.1729 68.1189 78.4197 68.4753C78.6664 68.8271 78.7624 69.2565 78.6844 69.6724L74.7282 91.5773C74.5956 92.331 73.915 92.8976 73.1477 92.8976C73.0517 92.8976 72.956 92.8885 72.86 92.87C71.9872 92.7149 71.4071 91.8741 71.5627 91.0018L75.5234 69.1013C75.6556 68.3472 76.3362 67.7807 77.1039 67.7807ZM51.978 65.5466C49.9681 65.5466 48.3186 67.1956 48.3186 69.2105V91.4628C48.3186 93.4821 49.9677 95.1267 51.978 95.1267C53.9974 95.1267 55.6419 93.4821 55.6419 91.4628V69.2105C55.6419 68.2055 55.231 67.2872 54.5639 66.6251C53.9058 65.958 52.983 65.5466 51.978 65.5466ZM50.3745 91.4628V69.2105C50.3745 68.3242 51.0917 67.6025 51.978 67.6025C52.4074 67.6025 52.8093 67.7671 53.1065 68.0729C53.4218 68.3837 53.591 68.7856 53.591 69.2105V91.4628C53.591 92.3536 52.8693 93.0753 51.9785 93.0753C51.0917 93.0753 50.3745 92.3536 50.3745 91.4628ZM26.8616 65.7293C26.6469 65.7293 26.4277 65.7428 26.2084 65.7843C24.2256 66.1451 22.9009 68.0594 23.2527 70.0373L27.2089 91.9422C27.5287 93.7009 29.0821 94.948 30.8132 94.948C31.0279 94.948 31.2472 94.93 31.4619 94.8885C33.4492 94.5322 34.7739 92.6179 34.4176 90.6355L30.4614 68.7351C30.1461 66.9764 28.5882 65.7293 26.8616 65.7293ZM31.0965 92.8696C31.0049 92.8881 30.9093 92.8971 30.8132 92.8971C30.0456 92.8971 29.3649 92.3261 29.2282 91.5724L25.2721 69.6719C25.1169 68.8041 25.7015 67.9633 26.5742 67.8037C26.6658 67.7901 26.7524 67.7807 26.862 67.7807C27.6248 67.7807 28.3058 68.3472 28.4425 69.1009L32.3987 91.0013C32.5539 91.8737 31.9734 92.7144 31.0965 92.8696ZM34.4176 90.636L30.4614 68.7355C30.1461 66.9769 28.5882 65.7297 26.8616 65.7297C26.6469 65.7297 26.4277 65.7428 26.2084 65.7843C24.2256 66.1451 22.9009 68.0594 23.2527 70.0373L27.2089 91.9427C27.5287 93.7013 29.0821 94.9485 30.8132 94.9485C31.0279 94.9485 31.2472 94.93 31.4619 94.8885C33.4492 94.5322 34.7739 92.6184 34.4176 90.636ZM31.0965 92.8696C31.0049 92.8881 30.9093 92.8971 30.8132 92.8971C30.0456 92.8971 29.3649 92.3261 29.2282 91.5724L25.2721 69.6719C25.1169 68.8041 25.7015 67.9633 26.5742 67.8037C26.6658 67.7901 26.7524 67.7807 26.862 67.7807C27.6248 67.7807 28.3058 68.3472 28.4425 69.1009L32.3987 91.0013C32.5539 91.8737 31.9734 92.7144 31.0965 92.8696ZM77.757 65.7843C77.5333 65.7433 77.3186 65.7293 77.1039 65.7293C75.3723 65.7293 73.8194 66.9764 73.4996 68.7351L69.5434 90.6355C69.187 92.6183 70.5163 94.5322 72.4946 94.8885C72.7138 94.9296 72.933 94.948 73.1477 94.948C74.8838 94.948 76.4323 93.7009 76.7476 91.9422L80.7038 70.0373C81.0646 68.0594 79.7349 66.1451 77.757 65.7843ZM73.1477 92.8971C73.0517 92.8971 72.956 92.8881 72.86 92.8696C71.9872 92.7144 71.4071 91.8737 71.5627 91.0013L75.5234 69.1013C75.656 68.3476 76.3367 67.7807 77.1039 67.7807C77.2135 67.7807 77.3006 67.7897 77.3782 67.8037C77.8076 67.8812 78.1729 68.1189 78.4197 68.4753C78.6664 68.8271 78.7624 69.2565 78.6844 69.6724L74.7282 91.5773C74.5956 92.3306 73.915 92.8971 73.1477 92.8971ZM54.5639 66.6246C53.9063 65.9575 52.983 65.5466 51.978 65.5466C49.9681 65.5466 48.3191 67.1956 48.3191 69.2105V91.4628C48.3191 93.4821 49.9677 95.1267 51.978 95.1267C53.9974 95.1267 55.6424 93.4821 55.6424 91.4628V69.2105C55.6419 68.2055 55.2306 67.2872 54.5639 66.6246ZM50.3745 91.4628V69.2105C50.3745 68.3242 51.0917 67.6025 51.978 67.6025C52.4074 67.6025 52.8093 67.7671 53.1065 68.0729C53.4218 68.3837 53.591 68.7856 53.591 69.2105V91.4628C53.591 92.3536 52.8693 93.0753 51.9785 93.0753C51.0917 93.0753 50.3745 92.3536 50.3745 91.4628ZM77.757 65.7843C77.5333 65.7433 77.3186 65.7293 77.1039 65.7293C75.3723 65.7293 73.8194 66.9764 73.4996 68.7351L69.5434 90.6355C69.187 92.6183 70.5163 94.5322 72.4946 94.8885C72.7138 94.9296 72.933 94.948 73.1477 94.948C74.8838 94.948 76.4323 93.7009 76.7476 91.9422L80.7038 70.0373C81.0646 68.0594 79.7349 66.1451 77.757 65.7843ZM73.1477 92.8971C73.0517 92.8971 72.956 92.8881 72.86 92.8696C71.9872 92.7144 71.4071 91.8737 71.5627 91.0013L75.5234 69.1013C75.656 68.3476 76.3367 67.7807 77.1039 67.7807C77.2135 67.7807 77.3006 67.7897 77.3782 67.8037C77.8076 67.8812 78.1729 68.1189 78.4197 68.4753C78.6664 68.8271 78.7624 69.2565 78.6844 69.6724L74.7282 91.5773C74.5956 92.3306 73.915 92.8971 73.1477 92.8971ZM51.978 65.5466C49.9681 65.5466 48.3186 67.1956 48.3186 69.2105V91.4628C48.3186 93.4821 49.9677 95.1267 51.978 95.1267C53.9974 95.1267 55.6419 93.4821 55.6419 91.4628V69.2105C55.6419 68.2055 55.231 67.2872 54.5639 66.6251C53.9058 65.958 52.983 65.5466 51.978 65.5466ZM50.3745 91.4628V69.2105C50.3745 68.3242 51.0917 67.6025 51.978 67.6025C52.4074 67.6025 52.8093 67.7671 53.1065 68.0729C53.4218 68.3837 53.591 68.7856 53.591 69.2105V91.4628C53.591 92.3536 52.8693 93.0753 51.9785 93.0753C51.0917 93.0753 50.3745 92.3536 50.3745 91.4628ZM30.4614 68.7355C30.1461 66.9769 28.5882 65.7297 26.8616 65.7297C26.6469 65.7297 26.4277 65.7428 26.2084 65.7843C24.2256 66.1451 22.9009 68.0594 23.2527 70.0373L27.2089 91.9427C27.5287 93.7013 29.0821 94.9485 30.8132 94.9485C31.0279 94.9485 31.2472 94.93 31.4619 94.8885C33.4492 94.5322 34.7739 92.6184 34.4176 90.636L30.4614 68.7355ZM31.0965 92.8696C31.0049 92.8881 30.9093 92.8971 30.8132 92.8971C30.0456 92.8971 29.3649 92.3261 29.2282 91.5724L25.2721 69.6719C25.1169 68.8041 25.7015 67.9633 26.5742 67.8037C26.6658 67.7901 26.7524 67.7807 26.862 67.7807C27.6248 67.7807 28.3058 68.3472 28.4425 69.1009L32.3987 91.0013C32.5539 91.8737 31.9734 92.7144 31.0965 92.8696Z" fill="white"/>
<path d="M88.0635 48.2968H61.7044V50.3482H88.0635V48.2968Z" fill="#534F70"/>
<path d="M53.4853 56.5146C51.6157 57.1898 49.5341 56.2124 48.8589 54.3428L38.0706 24.4668C37.3954 22.5972 38.3728 20.5156 40.2424 19.8404C42.112 19.1651 44.1936 20.1426 44.8689 22.0122L55.6572 51.8881C56.3319 53.7578 55.3545 55.8398 53.4853 56.5146Z" fill="#09160C"/>
<path d="M101.912 55.5832C101.912 57.0203 101.322 58.3288 100.372 59.2778C99.4282 60.2218 98.1197 60.8123 96.6827 60.8123H7.28528C4.40666 60.8123 2.05622 58.4569 2.05622 55.5832C2.05622 54.1461 2.6462 52.8327 3.5907 51.8886C4.54017 50.9392 5.84868 50.3492 7.28528 50.3492H96.6822C99.5563 50.3487 101.912 52.7041 101.912 55.5832Z" fill="#019934"/>
<path d="M7.32637 60.8123L15.8806 94.86C16.5531 97.5438 18.9649 99.422 21.7308 99.422H82.2373C85.0031 99.422 87.41 97.5438 88.0874 94.86L96.6417 60.8123H7.32637ZM31.4654 94.8907C29.4848 95.2497 27.5705 93.9209 27.2115 91.9399L23.2553 70.0386C22.9012 68.058 24.23 66.1437 26.2111 65.7847C26.4316 65.7437 26.6472 65.7283 26.8628 65.7283C28.5922 65.7283 30.147 66.9755 30.4654 68.7355L34.4216 90.6373C34.7752 92.6174 33.4514 94.5317 31.4654 94.8907ZM55.6454 91.4632C55.6454 93.4798 53.9982 95.1271 51.9815 95.1271C49.9698 95.1271 48.3226 93.4798 48.3226 91.4632V69.2127C48.3226 67.196 49.9698 65.5488 51.9815 65.5488C52.9874 65.5488 53.9057 65.9593 54.5679 66.6264C55.235 67.2885 55.6454 68.2069 55.6454 69.2127V91.4632ZM80.7078 70.0386L76.7516 91.9399C76.3975 93.9205 74.4832 95.2497 72.4977 94.8907C70.5171 94.5317 69.1879 92.6174 69.5469 90.6368L73.5031 68.735C73.8211 66.975 75.3763 65.7279 77.1057 65.7279C77.3213 65.7279 77.5368 65.7432 77.7574 65.7843C79.738 66.1437 81.0672 68.058 80.7078 70.0386Z" fill="#019934"/>
<path d="M96.6403 60.8123L96.2713 62.2832L7.77107 62.5768L7.32768 60.8123H96.6403Z" fill="white"/>
<path d="M100.823 45.4658C100.802 45.5091 100.778 45.557 100.751 45.5976C100.706 45.6887 100.636 45.8276 100.533 46.0098C100.506 46.0504 100.482 46.0987 100.451 46.1487C100.413 46.2137 100.37 46.2877 100.324 46.3671C100.274 46.4559 100.219 46.5421 100.164 46.6282C100.053 46.801 99.9258 46.9949 99.7797 47.2038C97.0301 51.2005 88.1439 60.8806 65.5046 63.3781C53.7348 43.414 56.4475 30.3984 57.991 26.02C58.0126 25.9528 58.0365 25.8811 58.0654 25.8112C58.111 25.684 58.1565 25.5573 58.207 25.4323C58.2693 25.2596 58.3342 25.1062 58.392 24.979C58.5647 24.574 58.6775 24.3723 58.6775 24.3723C61.903 17.9272 69.7386 15.3188 76.1788 18.542C80.0439 20.4762 82.5269 24.0697 83.1967 28.0268C86.7659 26.191 91.1303 26.025 94.9954 27.9591C101.44 31.1855 104.048 39.0212 100.823 45.4658Z" fill="#FF902A"/>
<path d="M65.5038 64.405C65.1434 64.405 64.806 64.2151 64.6201 63.8998C52.7177 43.7107 55.3424 30.4452 57.023 25.6789C57.0429 25.6144 57.0772 25.5152 57.1164 25.42C57.1493 25.3253 57.2003 25.185 57.2558 25.047C57.314 24.8837 57.3898 24.7046 57.4565 24.5558C57.6365 24.1332 57.7682 23.8959 57.7826 23.8697C59.442 20.5518 62.3319 18.0462 65.898 16.8586C69.4622 15.6705 73.2763 15.9425 76.6375 17.6249C80.2369 19.426 82.891 22.7105 83.927 26.5675C87.6347 25.084 91.8543 25.2405 95.4546 27.042C102.394 30.5147 105.214 38.9859 101.741 45.9249C101.713 45.9795 101.683 46.039 101.65 46.0949C101.597 46.2005 101.525 46.3403 101.425 46.5162L100.492 46.0778L101.387 46.5816L101.214 46.8793C101.156 46.9794 101.092 47.0809 101.028 47.1815C100.911 47.3651 100.775 47.5717 100.62 47.794C97.7707 51.9343 88.6455 61.8583 65.617 64.3991C65.5791 64.4027 65.5412 64.405 65.5038 64.405ZM70.3553 18.1842C69.0775 18.1842 67.7947 18.3908 66.5466 18.8062C63.5011 19.8206 61.032 21.9609 59.595 24.8327C59.5602 24.8968 59.47 25.0668 59.336 25.3817C59.2788 25.5089 59.2242 25.637 59.1728 25.7804C59.1128 25.9306 59.0722 26.0438 59.0316 26.1584C58.996 26.2472 58.982 26.2923 58.9684 26.3343C57.3897 30.8124 54.9735 43.1649 66.0527 62.2832C87.7497 59.724 96.2669 50.499 98.9345 46.6222C99.077 46.4192 99.1961 46.2375 99.2994 46.076C99.3449 46.0043 99.3909 45.9321 99.4333 45.8586L99.5993 45.5749C99.6219 45.5343 99.644 45.4955 99.6665 45.4603C99.7297 45.3471 99.7901 45.2262 99.8307 45.1455C99.8474 45.1125 99.8699 45.0719 99.8898 45.0408L99.906 45.0065L99.9065 45.0061C102.873 39.0793 100.464 31.8439 94.5362 28.8773C91.1249 27.1705 87.0618 27.1936 83.6668 28.94C83.3754 29.0898 83.0308 29.092 82.7376 28.945C82.4449 28.7988 82.2401 28.5215 82.1855 28.1989C81.5482 24.4345 79.1305 21.1675 75.7192 19.4602C74.0251 18.6127 72.196 18.1842 70.3553 18.1842Z" fill="white"/>
<path d="M85.7209 22.6866C85.7209 22.6866 70.731 12.9515 85.7209 0.769928C100.717 12.9515 85.7209 22.6866 85.7209 22.6866Z" fill="#019934"/>
<path d="M85.7214 23.4565C85.5757 23.4565 85.4295 23.415 85.3019 23.332C85.0308 23.1556 78.6515 18.9405 78.3038 12.4124C78.0801 8.20996 80.4125 4.09229 85.236 0.17219C85.5188 -0.0573965 85.9239 -0.0573965 86.2067 0.17219C91.0321 4.09139 93.3654 8.20996 93.1416 12.412C92.7939 18.9401 86.4119 23.1561 86.1404 23.332C86.0132 23.415 85.867 23.4565 85.7214 23.4565ZM85.7214 1.76982C81.6335 5.23165 79.6556 8.77964 79.8405 12.3222C80.0936 17.1611 84.3524 20.719 85.7214 21.7425C87.0908 20.7195 91.3514 17.1616 91.6044 12.3222C91.7894 8.77964 89.8111 5.23165 85.7214 1.76982Z" fill="white"/>
<path d="M85.7211 23.4566C85.2962 23.4566 84.9511 23.112 84.9511 22.6866V0.769948C84.9511 0.345056 85.2957 0 85.7211 0C86.146 0 86.4906 0.344605 86.4906 0.769948V22.6871C86.491 23.112 86.146 23.4566 85.7211 23.4566Z" fill="white"/>
<path d="M85.722 11.837C85.4992 11.837 85.2872 11.7405 85.1406 11.5718L80.4907 6.21688C80.212 5.89618 80.2463 5.40949 80.5674 5.13074C80.8886 4.85199 81.3743 4.88628 81.6535 5.20742L85.722 9.89297L89.7905 5.20742C90.0693 4.88628 90.5542 4.85199 90.8767 5.13074C91.1978 5.40949 91.2321 5.89618 90.9534 6.21688L86.3034 11.5718C86.1573 11.7405 85.9453 11.837 85.722 11.837Z" fill="white"/>
<path d="M85.7211 19.2532C85.5172 19.2532 85.3219 19.1724 85.1766 19.0276L78.5146 12.3683C78.2137 12.0679 78.2137 11.5803 78.5146 11.2799C78.8154 10.979 79.3021 10.979 79.603 11.2799L85.6859 17.3605L91.7674 10.4766C92.048 10.1572 92.5351 10.1275 92.854 10.4094C93.1729 10.6908 93.2027 11.1771 92.9212 11.496L86.298 18.9934C86.1577 19.1526 85.957 19.2464 85.745 19.2532C85.7373 19.2532 85.7292 19.2532 85.7211 19.2532Z" fill="white"/>
</svg>
