<svg width="186" height="40" viewBox="0 0 186 40" fill="none" xmlns="http://www.w3.org/2000/svg">
<path d="M60.6462 18.206C60.5657 17.9077 60.4473 17.6449 60.2911 17.4176C60.1348 17.1856 59.9431 16.9891 59.7158 16.8281C59.4885 16.6671 59.2281 16.5464 58.9346 16.4659C58.641 16.3807 58.319 16.3381 57.9686 16.3381C57.2632 16.3381 56.6524 16.5085 56.1363 16.8494C55.6249 17.1903 55.2295 17.6875 54.9502 18.3409C54.6708 18.9896 54.5311 19.7779 54.5311 20.706C54.5311 21.6387 54.6661 22.4342 54.936 23.0923C55.2059 23.7505 55.5965 24.2524 56.1079 24.598C56.6192 24.9437 57.2395 25.1165 57.9686 25.1165C58.6126 25.1165 59.1571 25.0123 59.6022 24.804C60.052 24.5909 60.3929 24.2902 60.6249 23.902C60.8569 23.5137 60.9729 23.0568 60.9729 22.5312L61.6263 22.6094H58.0894V20.0455H64.3607V21.9702C64.3607 23.2723 64.0837 24.3873 63.5297 25.3153C62.9805 26.2434 62.2229 26.956 61.257 27.4531C60.2958 27.9503 59.1902 28.1989 57.9402 28.1989C56.5529 28.1989 55.3337 27.8982 54.2826 27.2969C53.2314 26.6955 52.4123 25.8385 51.8252 24.7259C51.2381 23.6084 50.9445 22.2827 50.9445 20.7486C50.9445 19.5554 51.1221 18.4972 51.4772 17.5739C51.8323 16.6458 52.3271 15.8598 52.9615 15.2159C53.6007 14.572 54.3394 14.0843 55.1775 13.7528C56.0203 13.4214 56.927 13.2557 57.8976 13.2557C58.7404 13.2557 59.524 13.3764 60.2485 13.6179C60.9776 13.8594 61.6216 14.2003 62.1803 14.6406C62.7437 15.081 63.2007 15.6042 63.551 16.2102C63.9014 16.8163 64.1192 17.4815 64.2044 18.206H60.6462ZM66.4328 28V17.0909H69.8064V19.0795H69.92C70.1189 18.3598 70.4432 17.8248 70.893 17.4744C71.3428 17.1193 71.866 16.9418 72.4626 16.9418C72.6236 16.9418 72.7893 16.9536 72.9598 16.9773C73.1302 16.9962 73.2888 17.027 73.4356 17.0696V20.0881C73.2699 20.0312 73.0521 19.9863 72.7822 19.9531C72.5171 19.92 72.2803 19.9034 72.072 19.9034C71.6601 19.9034 71.2884 19.9957 70.9569 20.1804C70.6302 20.3603 70.3722 20.6136 70.1828 20.9403C69.9981 21.2623 69.9058 21.6411 69.9058 22.0767V28H66.4328ZM79.3767 28.206C78.2308 28.206 77.246 27.9716 76.4221 27.5028C75.603 27.0294 74.9709 26.3712 74.5258 25.5284C74.0855 24.6809 73.8653 23.6984 73.8653 22.581C73.8653 21.4588 74.0855 20.4763 74.5258 19.6335C74.9709 18.786 75.603 18.1278 76.4221 17.6591C77.246 17.1856 78.2308 16.9489 79.3767 16.9489C80.5225 16.9489 81.505 17.1856 82.3241 17.6591C83.148 18.1278 83.7801 18.786 84.2204 19.6335C84.6655 20.4763 84.888 21.4588 84.888 22.581C84.888 23.6984 84.6655 24.6809 84.2204 25.5284C83.7801 26.3712 83.148 27.0294 82.3241 27.5028C81.505 27.9716 80.5225 28.206 79.3767 28.206ZM79.398 25.5852C79.8146 25.5852 80.1674 25.4574 80.4562 25.2017C80.745 24.946 80.9652 24.5909 81.1167 24.1364C81.273 23.6818 81.3511 23.1562 81.3511 22.5597C81.3511 21.9536 81.273 21.4233 81.1167 20.9688C80.9652 20.5142 80.745 20.1591 80.4562 19.9034C80.1674 19.6477 79.8146 19.5199 79.398 19.5199C78.9671 19.5199 78.6025 19.6477 78.3042 19.9034C78.0107 20.1591 77.7858 20.5142 77.6295 20.9688C77.478 21.4233 77.4022 21.9536 77.4022 22.5597C77.4022 23.1562 77.478 23.6818 77.6295 24.1364C77.7858 24.5909 78.0107 24.946 78.3042 25.2017C78.6025 25.4574 78.9671 25.5852 79.398 25.5852ZM91.7595 28.206C90.6089 28.206 89.6217 27.9692 88.7978 27.4957C87.9787 27.0223 87.349 26.3641 86.9086 25.5213C86.4683 24.6738 86.2481 23.6937 86.2481 22.581C86.2481 21.4635 86.4683 20.4834 86.9086 19.6406C87.3537 18.7931 87.9858 18.1326 88.8049 17.6591C89.6288 17.1856 90.6113 16.9489 91.7524 16.9489C92.7609 16.9489 93.6392 17.1312 94.3873 17.4957C95.1402 17.8603 95.7273 18.3764 96.1487 19.044C96.5748 19.7069 96.7997 20.4858 96.8234 21.3807H93.5777C93.5114 20.822 93.322 20.384 93.0095 20.0668C92.7017 19.7495 92.2993 19.5909 91.8021 19.5909C91.3996 19.5909 91.0469 19.7045 90.7439 19.9318C90.4408 20.1544 90.2041 20.4858 90.0336 20.9261C89.8679 21.3617 89.7851 21.9015 89.7851 22.5455C89.7851 23.1894 89.8679 23.7339 90.0336 24.179C90.2041 24.6193 90.4408 24.9531 90.7439 25.1804C91.0469 25.4029 91.3996 25.5142 91.8021 25.5142C92.1241 25.5142 92.4082 25.4455 92.6544 25.3082C92.9053 25.1709 93.1113 24.9697 93.2723 24.7045C93.4333 24.4347 93.5351 24.108 93.5777 23.7244H96.8234C96.7903 24.6241 96.5654 25.41 96.1487 26.0824C95.7368 26.7547 95.1567 27.2779 94.4086 27.652C93.6653 28.0213 92.7822 28.206 91.7595 28.206ZM103.7 28.206C102.559 28.206 101.574 27.9811 100.746 27.5312C99.9218 27.0767 99.2873 26.4304 98.8422 25.5923C98.4019 24.7495 98.1817 23.7481 98.1817 22.5881C98.1817 21.4612 98.4043 20.4763 98.8493 19.6335C99.2944 18.786 99.9218 18.1278 100.731 17.6591C101.541 17.1856 102.495 16.9489 103.594 16.9489C104.37 16.9489 105.08 17.0696 105.724 17.3111C106.368 17.5526 106.925 17.91 107.393 18.3835C107.862 18.857 108.227 19.4418 108.487 20.1378C108.748 20.8291 108.878 21.6222 108.878 22.517V23.3835H99.3962V21.3665H105.646C105.641 20.9972 105.554 20.6681 105.383 20.3793C105.213 20.0904 104.979 19.8655 104.68 19.7045C104.387 19.5388 104.048 19.456 103.665 19.456C103.276 19.456 102.928 19.5436 102.621 19.7188C102.313 19.8892 102.069 20.1236 101.889 20.4219C101.709 20.7154 101.614 21.0492 101.605 21.4233V23.4759C101.605 23.9209 101.693 24.3116 101.868 24.6477C102.043 24.9792 102.292 25.2372 102.614 25.4219C102.936 25.6065 103.319 25.6989 103.764 25.6989C104.072 25.6989 104.351 25.6562 104.602 25.571C104.853 25.4858 105.069 25.3603 105.248 25.1946C105.428 25.0289 105.563 24.8253 105.653 24.5838L108.842 24.6761C108.71 25.3911 108.418 26.0137 107.969 26.544C107.524 27.0696 106.939 27.4792 106.214 27.7727C105.49 28.0616 104.652 28.206 103.7 28.206ZM110.652 28V17.0909H114.025V19.0795H114.139C114.338 18.3598 114.662 17.8248 115.112 17.4744C115.562 17.1193 116.085 16.9418 116.681 16.9418C116.842 16.9418 117.008 16.9536 117.179 16.9773C117.349 16.9962 117.508 17.027 117.654 17.0696V20.0881C117.489 20.0312 117.271 19.9863 117.001 19.9531C116.736 19.92 116.499 19.9034 116.291 19.9034C115.879 19.9034 115.507 19.9957 115.176 20.1804C114.849 20.3603 114.591 20.6136 114.402 20.9403C114.217 21.2623 114.125 21.6411 114.125 22.0767V28H110.652ZM121.525 32.0909C121.108 32.0909 120.715 32.0578 120.346 31.9915C119.977 31.9299 119.66 31.8471 119.394 31.7429L120.161 29.2216C120.502 29.3352 120.81 29.4015 121.085 29.4205C121.364 29.4394 121.603 29.3944 121.802 29.2855C122.006 29.1813 122.162 28.9943 122.271 28.7244L122.406 28.3977L118.528 17.0909H122.164L124.174 24.875H124.288L126.326 17.0909H129.984L125.872 29.044C125.673 29.6406 125.391 30.1662 125.027 30.6207C124.667 31.08 124.2 31.4399 123.627 31.7003C123.059 31.9607 122.358 32.0909 121.525 32.0909ZM143.475 17.8153C143.427 17.2945 143.217 16.8897 142.843 16.6009C142.473 16.3073 141.945 16.1605 141.259 16.1605C140.804 16.1605 140.425 16.2197 140.122 16.3381C139.819 16.4564 139.592 16.6198 139.441 16.8281C139.289 17.0317 139.211 17.2661 139.206 17.5312C139.197 17.7491 139.239 17.9408 139.334 18.1065C139.433 18.2723 139.576 18.419 139.76 18.5469C139.95 18.67 140.177 18.7789 140.442 18.8736C140.707 18.9683 141.005 19.0511 141.337 19.1222L142.587 19.4062C143.307 19.5625 143.941 19.7708 144.49 20.0312C145.044 20.2917 145.508 20.6018 145.882 20.9616C146.261 21.3215 146.548 21.7358 146.742 22.2045C146.936 22.6733 147.035 23.1989 147.04 23.7812C147.035 24.6998 146.803 25.4882 146.344 26.1463C145.885 26.8045 145.224 27.3087 144.362 27.6591C143.505 28.0095 142.471 28.1847 141.259 28.1847C140.042 28.1847 138.981 28.0024 138.077 27.6378C137.173 27.2732 136.469 26.7192 135.968 25.9759C135.466 25.2325 135.208 24.2926 135.193 23.1562H138.56C138.588 23.625 138.714 24.0156 138.936 24.3281C139.159 24.6406 139.464 24.8774 139.853 25.0384C140.246 25.1993 140.7 25.2798 141.216 25.2798C141.69 25.2798 142.092 25.2159 142.424 25.0881C142.76 24.9602 143.018 24.7827 143.198 24.5554C143.378 24.3281 143.47 24.0677 143.475 23.7741C143.47 23.4995 143.385 23.2652 143.219 23.071C143.053 22.8722 142.798 22.7017 142.452 22.5597C142.111 22.4129 141.675 22.2779 141.145 22.1548L139.625 21.7997C138.366 21.5109 137.374 21.0445 136.649 20.4006C135.925 19.7519 135.565 18.8759 135.57 17.7727C135.565 16.8731 135.807 16.0848 136.294 15.4077C136.782 14.7306 137.457 14.2027 138.318 13.8239C139.18 13.4451 140.163 13.2557 141.266 13.2557C142.393 13.2557 143.371 13.4474 144.199 13.831C145.032 14.2098 145.679 14.7424 146.138 15.429C146.597 16.1155 146.832 16.911 146.841 17.8153H143.475ZM152.289 21.7784V28H148.816V13.4545H152.175V19.0938H152.296C152.542 18.4214 152.944 17.8958 153.503 17.517C154.067 17.1383 154.755 16.9489 155.57 16.9489C156.337 16.9489 157.005 17.1193 157.573 17.4602C158.141 17.7964 158.581 18.2723 158.894 18.8878C159.211 19.5033 159.367 20.223 159.362 21.0469V28H155.889V21.7287C155.894 21.1226 155.743 20.6491 155.435 20.3082C155.127 19.9673 154.694 19.7969 154.135 19.7969C153.771 19.7969 153.449 19.8774 153.169 20.0384C152.895 20.1946 152.679 20.4195 152.523 20.7131C152.371 21.0066 152.293 21.3617 152.289 21.7784ZM166.623 28.206C165.477 28.206 164.492 27.9716 163.668 27.5028C162.849 27.0294 162.217 26.3712 161.772 25.5284C161.332 24.6809 161.111 23.6984 161.111 22.581C161.111 21.4588 161.332 20.4763 161.772 19.6335C162.217 18.786 162.849 18.1278 163.668 17.6591C164.492 17.1856 165.477 16.9489 166.623 16.9489C167.769 16.9489 168.751 17.1856 169.57 17.6591C170.394 18.1278 171.026 18.786 171.467 19.6335C171.912 20.4763 172.134 21.4588 172.134 22.581C172.134 23.6984 171.912 24.6809 171.467 25.5284C171.026 26.3712 170.394 27.0294 169.57 27.5028C168.751 27.9716 167.769 28.206 166.623 28.206ZM166.644 25.5852C167.061 25.5852 167.413 25.4574 167.702 25.2017C167.991 24.946 168.211 24.5909 168.363 24.1364C168.519 23.6818 168.597 23.1562 168.597 22.5597C168.597 21.9536 168.519 21.4233 168.363 20.9688C168.211 20.5142 167.991 20.1591 167.702 19.9034C167.413 19.6477 167.061 19.5199 166.644 19.5199C166.213 19.5199 165.849 19.6477 165.55 19.9034C165.257 20.1591 165.032 20.5142 164.876 20.9688C164.724 21.4233 164.648 21.9536 164.648 22.5597C164.648 23.1562 164.724 23.6818 164.876 24.1364C165.032 24.5909 165.257 24.946 165.55 25.2017C165.849 25.4574 166.213 25.5852 166.644 25.5852ZM173.913 32.0909V17.0909H177.351V18.9588H177.457C177.599 18.6274 177.801 18.3078 178.061 18C178.326 17.6922 178.662 17.4413 179.069 17.2472C179.481 17.0483 179.974 16.9489 180.547 16.9489C181.304 16.9489 182.012 17.1477 182.67 17.5455C183.333 17.9432 183.868 18.5563 184.275 19.3849C184.683 20.2135 184.886 21.2694 184.886 22.5526C184.886 23.7884 184.69 24.8229 184.297 25.6562C183.909 26.4896 183.383 27.1146 182.72 27.5312C182.062 27.9479 181.33 28.1562 180.525 28.1562C179.976 28.1562 179.5 28.0663 179.098 27.8864C178.695 27.7064 178.357 27.4697 178.082 27.1761C177.812 26.8826 177.604 26.5677 177.457 26.2315H177.386V32.0909H173.913ZM177.315 22.5455C177.315 23.1326 177.393 23.6439 177.55 24.0795C177.711 24.5152 177.94 24.8537 178.239 25.0952C178.542 25.3319 178.904 25.4503 179.325 25.4503C179.751 25.4503 180.114 25.3319 180.412 25.0952C180.71 24.8537 180.935 24.5152 181.087 24.0795C181.243 23.6439 181.321 23.1326 181.321 22.5455C181.321 21.9583 181.243 21.4493 181.087 21.0185C180.935 20.5876 180.71 20.2538 180.412 20.017C180.118 19.7803 179.756 19.6619 179.325 19.6619C178.899 19.6619 178.537 19.7779 178.239 20.0099C177.94 20.242 177.711 20.5734 177.55 21.0043C177.393 21.4351 177.315 21.9489 177.315 22.5455Z" fill="#09160C"/>
<path d="M37.1984 19.4429H31.0324L30.8901 19.0377H27.0917L27.234 19.4429H21.4776L17.6352 8.53936C17.3786 7.81733 16.7019 7.33105 15.953 7.33105C15.7509 7.33105 15.5489 7.36893 15.3484 7.44093C14.4239 7.78124 13.9423 8.83113 14.2762 9.78198L17.6826 19.4429H2.80194C2.16207 19.4429 1.55743 19.7004 1.10221 20.1667C0.646996 20.6331 0.395527 21.2525 0.395527 21.9099C0.395527 23.1614 1.31134 24.1986 2.50483 24.3553L5.72674 37.4898C6.02906 38.7287 7.11183 39.5949 8.35981 39.5949H31.6406C32.8868 39.5949 33.9696 38.7307 34.2754 37.4898L37.4955 24.357C38.0247 24.2904 38.5132 24.0455 38.8982 23.653C39.3551 23.1848 39.6066 22.5654 39.6066 21.9099C39.6066 20.5485 38.5255 19.4429 37.1984 19.4429ZM20.7164 26.5504C20.908 26.7449 21.0153 27.006 21.0153 27.2815V36.0529C21.0153 36.6256 20.56 37.0919 19.9993 37.0919C19.4403 37.0919 18.9868 36.6256 18.9868 36.0529V27.2815C18.9868 26.7088 19.4403 26.2424 19.9993 26.2424C20.2701 26.2424 20.5231 26.3505 20.7164 26.5504ZM12.0352 37.0053C11.9772 37.018 11.9156 37.0233 11.8559 37.0233C11.3655 37.0233 10.9455 36.6631 10.8575 36.1697L9.33532 27.5369C9.23692 26.9733 9.60432 26.4312 10.1562 26.3286C10.2107 26.3178 10.2687 26.3125 10.3355 26.3125C10.8171 26.3125 11.2459 26.6798 11.3322 27.1661L12.8544 35.7988C12.9528 36.3626 12.5854 36.9045 12.0352 37.0053ZM29.6668 26.3126C29.7319 26.3126 29.7916 26.318 29.8461 26.3288C30.1114 26.3774 30.3435 26.5324 30.4983 26.761C30.6529 26.9897 30.7128 27.2653 30.6635 27.5353L29.1413 36.1699C29.0552 36.6633 28.6368 37.0235 28.1446 37.0235C28.0849 37.0235 28.0233 37.0181 27.9636 37.0055C27.7 36.957 27.4679 36.8039 27.3133 36.5751C27.1587 36.3464 27.0988 36.0708 27.1464 35.799L28.6686 27.1662C28.7545 26.68 29.1833 26.3126 29.6668 26.3126Z" fill="white"/>
<path d="M37.1983 19.0378H30.4698L30.7546 19.8464H37.1983C38.3039 19.8464 39.2109 20.7756 39.2109 21.9101C39.2109 22.4755 38.9842 22.9924 38.6186 23.367C38.2546 23.7379 37.7521 23.972 37.1983 23.972H37.1825L33.892 37.393C33.6319 38.45 32.7056 39.1902 31.6404 39.1902H8.35964C7.29614 39.1902 6.36818 38.45 6.10977 37.393L3.27643 25.8377L2.81774 23.972H2.80195C1.69454 23.972 0.79105 23.0429 0.79105 21.9101C0.79105 21.343 1.01788 20.8261 1.38163 20.4533C1.74556 20.0786 2.24989 19.8464 2.80195 19.8464H18.2451L14.6471 9.6434C14.3887 8.90697 14.763 8.08572 15.482 7.82099C15.6384 7.76516 15.7967 7.73635 15.9531 7.73635C16.5225 7.73635 17.0587 8.09835 17.2644 8.67636L21.1999 19.8463H27.7967L27.5119 19.0376H21.7555L18.006 8.40256C17.693 7.51837 16.867 6.92773 15.9529 6.92773C15.7051 6.92773 15.459 6.97094 15.2181 7.05913C14.0843 7.47695 13.4974 8.75904 13.9033 9.91685L17.12 19.0376H2.80177C2.05656 19.0376 1.35334 19.3365 0.822634 19.8804C0.291751 20.4243 1.90735e-05 21.1445 1.90735e-05 21.9098C1.90735e-05 23.2747 0.936828 24.4219 2.18481 24.7099L2.51004 26.0352L5.34338 37.5888C5.68961 39.0078 6.93065 40.0001 8.35964 40.0001H31.6404C33.0676 40.0001 34.3085 39.0078 34.6567 37.5907L37.817 24.7101C38.3267 24.5931 38.7959 24.3283 39.1774 23.9375C39.7083 23.3937 40 22.6734 40 21.91C40.0002 20.3253 38.7434 19.0378 37.1983 19.0378ZM27.893 37.4035C27.9773 37.4197 28.0617 37.427 28.1443 37.427C28.8123 37.427 29.408 36.9354 29.5294 36.2422L31.0515 27.6076C31.1904 26.828 30.6789 26.0734 29.9178 25.9312C29.8317 25.915 29.7491 25.9095 29.6665 25.9095C29.0002 25.9095 28.4027 26.4011 28.2796 27.0943L26.7574 35.7271C26.6205 36.5085 27.132 37.2631 27.893 37.4035ZM29.6666 26.7179C29.7088 26.7179 29.7423 26.7215 29.7721 26.727C29.9374 26.7576 30.0779 26.8513 30.1729 26.9917C30.2678 27.1304 30.3048 27.2997 30.2747 27.4636L28.7526 36.0981C28.7015 36.3952 28.4396 36.6185 28.1444 36.6185C28.1075 36.6185 28.0707 36.615 28.0337 36.6077C27.6979 36.5465 27.4747 36.2151 27.5346 35.8713L29.0585 27.2385C29.1094 26.9412 29.3713 26.7179 29.6666 26.7179ZM19.9992 25.8373C19.2258 25.8373 18.5912 26.4873 18.5912 27.2815V36.053C18.5912 36.849 19.2256 37.4972 19.9992 37.4972C20.7761 37.4972 21.4089 36.849 21.4089 36.053V27.2815C21.4089 26.8854 21.2508 26.5234 20.9941 26.2624C20.7409 25.9995 20.3858 25.8373 19.9992 25.8373ZM19.3822 36.053V27.2815C19.3822 26.9322 19.6581 26.6477 19.9992 26.6477C20.1644 26.6477 20.319 26.7126 20.4334 26.8331C20.5547 26.9556 20.6198 27.1141 20.6198 27.2815V36.053C20.6198 36.4041 20.3421 36.6886 19.9993 36.6886C19.6581 36.6886 19.3822 36.4041 19.3822 36.053ZM10.3353 25.9093C10.2527 25.9093 10.1684 25.9146 10.084 25.931C9.3211 26.0732 8.81139 26.8278 8.94676 27.6075L10.4689 36.242C10.592 36.9352 11.1897 37.4268 11.8558 37.4268C11.9384 37.4268 12.0227 37.4197 12.1053 37.4033C12.87 37.2629 13.3797 36.5083 13.2426 35.7269L11.7204 27.0942C11.5991 26.4009 10.9997 25.9093 10.3353 25.9093ZM11.9648 36.6075C11.9295 36.6148 11.8927 36.6184 11.8558 36.6184C11.5604 36.6184 11.2985 36.3933 11.2459 36.0962L9.72373 27.4634C9.66403 27.1214 9.88895 26.7899 10.2248 26.727C10.26 26.7217 10.2933 26.7179 10.3355 26.7179C10.629 26.7179 10.891 26.9412 10.9436 27.2383L12.4658 35.8711C12.5255 36.2149 12.3021 36.5464 11.9648 36.6075ZM13.2426 35.7271L11.7204 27.0943C11.5991 26.4011 10.9997 25.9095 10.3353 25.9095C10.2527 25.9095 10.1684 25.9146 10.084 25.931C9.3211 26.0732 8.81139 26.8278 8.94676 27.6075L10.4689 36.2422C10.592 36.9354 11.1897 37.427 11.8558 37.427C11.9384 37.427 12.0227 37.4197 12.1053 37.4033C12.87 37.2629 13.3797 36.5085 13.2426 35.7271ZM11.9648 36.6075C11.9295 36.6148 11.8927 36.6184 11.8558 36.6184C11.5604 36.6184 11.2985 36.3933 11.2459 36.0962L9.72373 27.4634C9.66403 27.1214 9.88895 26.7899 10.2248 26.727C10.26 26.7217 10.2933 26.7179 10.3355 26.7179C10.629 26.7179 10.891 26.9412 10.9436 27.2383L12.4658 35.8711C12.5255 36.2149 12.3021 36.5464 11.9648 36.6075ZM29.9179 25.931C29.8318 25.9148 29.7492 25.9093 29.6666 25.9093C29.0004 25.9093 28.4029 26.4009 28.2798 27.0942L26.7576 35.7269C26.6205 36.5085 27.132 37.2629 27.8931 37.4033C27.9775 37.4195 28.0618 37.4268 28.1444 37.4268C28.8124 37.4268 29.4082 36.9352 29.5295 36.242L31.0517 27.6075C31.1906 26.8278 30.6789 26.0732 29.9179 25.931ZM28.1444 36.6184C28.1075 36.6184 28.0707 36.6148 28.0337 36.6075C27.6979 36.5464 27.4747 36.2149 27.5346 35.8711L29.0585 27.2385C29.1095 26.9414 29.3714 26.7179 29.6666 26.7179C29.7088 26.7179 29.7423 26.7215 29.7721 26.727C29.9374 26.7576 30.0779 26.8513 30.1729 26.9917C30.2678 27.1304 30.3048 27.2997 30.2747 27.4636L28.7526 36.0981C28.7015 36.3951 28.4396 36.6184 28.1444 36.6184ZM20.9941 26.2622C20.7411 25.9993 20.3858 25.8373 19.9992 25.8373C19.2258 25.8373 18.5913 26.4873 18.5913 27.2815V36.053C18.5913 36.849 19.2256 37.4972 19.9992 37.4972C20.7761 37.4972 21.4091 36.849 21.4091 36.053V27.2815C21.4089 26.8854 21.2506 26.5234 20.9941 26.2622ZM19.3822 36.053V27.2815C19.3822 26.9322 19.6581 26.6477 19.9992 26.6477C20.1644 26.6477 20.319 26.7126 20.4334 26.8331C20.5547 26.9556 20.6198 27.1141 20.6198 27.2815V36.053C20.6198 36.4041 20.3421 36.6886 19.9993 36.6886C19.6581 36.6886 19.3822 36.4041 19.3822 36.053ZM29.9179 25.931C29.8318 25.9148 29.7492 25.9093 29.6666 25.9093C29.0004 25.9093 28.4029 26.4009 28.2798 27.0942L26.7576 35.7269C26.6205 36.5085 27.132 37.2629 27.8931 37.4033C27.9775 37.4195 28.0618 37.4268 28.1444 37.4268C28.8124 37.4268 29.4082 36.9352 29.5295 36.242L31.0517 27.6075C31.1906 26.8278 30.6789 26.0732 29.9179 25.931ZM28.1444 36.6184C28.1075 36.6184 28.0707 36.6148 28.0337 36.6075C27.6979 36.5464 27.4747 36.2149 27.5346 35.8711L29.0585 27.2385C29.1095 26.9414 29.3714 26.7179 29.6666 26.7179C29.7088 26.7179 29.7423 26.7215 29.7721 26.727C29.9374 26.7576 30.0779 26.8513 30.1729 26.9917C30.2678 27.1304 30.3048 27.2997 30.2747 27.4636L28.7526 36.0981C28.7015 36.3951 28.4396 36.6184 28.1444 36.6184ZM19.9992 25.8373C19.2258 25.8373 18.5912 26.4873 18.5912 27.2815V36.053C18.5912 36.849 19.2256 37.4972 19.9992 37.4972C20.7761 37.4972 21.4089 36.849 21.4089 36.053V27.2815C21.4089 26.8854 21.2508 26.5234 20.9941 26.2624C20.7409 25.9995 20.3858 25.8373 19.9992 25.8373ZM19.3822 36.053V27.2815C19.3822 26.9322 19.6581 26.6477 19.9992 26.6477C20.1644 26.6477 20.319 26.7126 20.4334 26.8331C20.5547 26.9556 20.6198 27.1141 20.6198 27.2815V36.053C20.6198 36.4041 20.3421 36.6886 19.9993 36.6886C19.6581 36.6886 19.3822 36.4041 19.3822 36.053ZM11.7204 27.0943C11.5991 26.4011 10.9997 25.9095 10.3353 25.9095C10.2527 25.9095 10.1684 25.9146 10.084 25.931C9.3211 26.0732 8.81139 26.8278 8.94676 27.6075L10.4689 36.2422C10.592 36.9354 11.1897 37.427 11.8558 37.427C11.9384 37.427 12.0227 37.4197 12.1053 37.4033C12.87 37.2629 13.3797 36.5085 13.2426 35.7271L11.7204 27.0943ZM11.9648 36.6075C11.9295 36.6148 11.8927 36.6184 11.8558 36.6184C11.5604 36.6184 11.2985 36.3933 11.2459 36.0962L9.72373 27.4634C9.66403 27.1214 9.88895 26.7899 10.2248 26.727C10.26 26.7217 10.2933 26.7179 10.3355 26.7179C10.629 26.7179 10.891 26.9412 10.9436 27.2383L12.4658 35.8711C12.5255 36.2149 12.3021 36.5464 11.9648 36.6075Z" fill="white"/>
<path d="M33.8834 19.0378H23.7415V19.8465H33.8834V19.0378Z" fill="#534F70"/>
<path d="M20.5791 22.2769C19.8597 22.5431 19.0588 22.1578 18.799 21.4208L14.6481 9.6443C14.3883 8.90734 14.7644 8.0868 15.4837 7.82064C16.2031 7.55448 17.004 7.93977 17.2638 8.67673L21.4147 20.4533C21.6744 21.1902 21.2983 22.011 20.5791 22.2769Z" fill="#09160C"/>
<path d="M39.2118 21.9098C39.2118 22.4763 38.9848 22.9921 38.6194 23.3662C38.2562 23.7383 37.7527 23.971 37.1998 23.971H2.80316C1.69558 23.971 0.791218 23.0426 0.791218 21.9098C0.791218 21.3434 1.01822 20.8256 1.38163 20.4535C1.74694 20.0792 2.25041 19.8467 2.80316 19.8467H37.1996C38.3055 19.8465 39.2118 20.775 39.2118 21.9098Z" fill="#019934"/>
<path d="M2.81887 23.9709L6.1102 37.3919C6.36896 38.4498 7.29692 39.1902 8.36112 39.1902H31.6417C32.7059 39.1902 33.6319 38.4498 33.8926 37.3919L37.1839 23.9709H2.81887ZM12.1066 37.404C11.3446 37.5456 10.608 37.0218 10.4699 36.2409L8.94771 27.6078C8.81147 26.8271 9.32275 26.0725 10.085 25.931C10.1698 25.9148 10.2528 25.9088 10.3357 25.9088C11.0011 25.9088 11.5993 26.4004 11.7219 27.0941L13.2441 35.7274C13.3801 36.5079 12.8708 37.2625 12.1066 37.404ZM21.4102 36.0529C21.4102 36.8479 20.7764 37.4972 20.0005 37.4972C19.2264 37.4972 18.5926 36.8479 18.5926 36.0529V27.2822C18.5926 26.4873 19.2264 25.838 20.0005 25.838C20.3875 25.838 20.7408 25.9998 20.9956 26.2627C21.2523 26.5238 21.4102 26.8857 21.4102 27.2822V36.0529ZM31.0532 27.6078L29.531 36.2409C29.3948 37.0216 28.6582 37.5456 27.8943 37.404C27.1322 37.2625 26.6208 36.5079 26.7589 35.7272L28.2811 27.0939C28.4035 26.4002 29.0019 25.9086 29.6672 25.9086C29.7502 25.9086 29.8331 25.9146 29.918 25.9308C30.6801 26.0725 31.1915 26.8271 31.0532 27.6078Z" fill="#019934"/>
<path d="M37.1835 23.9709L37.0415 24.5507L2.99007 24.6665L2.81948 23.9709H37.1835Z" fill="white"/>
<path d="M38.793 17.9216C38.7846 17.9387 38.7754 17.9575 38.7652 17.9735C38.7477 18.0094 38.7209 18.0642 38.6812 18.136C38.671 18.152 38.6618 18.1711 38.6498 18.1908C38.635 18.2164 38.6184 18.2455 38.6008 18.2768C38.5814 18.3119 38.5602 18.3458 38.5391 18.3798C38.4965 18.4479 38.4476 18.5243 38.3914 18.6067C37.3334 20.1821 33.9144 23.9978 25.2036 24.9823C20.6751 17.1128 21.7188 11.9823 22.3127 10.2564C22.321 10.2299 22.3302 10.2017 22.3413 10.1741C22.3589 10.124 22.3764 10.074 22.3958 10.0248C22.4198 9.95667 22.4448 9.89621 22.467 9.84608C22.5334 9.68641 22.5768 9.60694 22.5768 9.60694C23.8179 7.0664 26.8327 6.0382 29.3107 7.30874C30.7978 8.07113 31.7532 9.48764 32.0109 11.0474C33.3842 10.3238 35.0634 10.2584 36.5506 11.0208C39.0302 12.2926 40.0338 15.3812 38.793 17.9216Z" fill="#FF902A"/>
<path d="M25.2034 25.3872C25.0647 25.3872 24.9349 25.3124 24.8634 25.1881C20.2838 17.2299 21.2937 12.0009 21.9403 10.1221C21.9479 10.0967 21.9611 10.0576 21.9762 10.0201C21.9889 9.98272 22.0085 9.92742 22.0299 9.87301C22.0522 9.80865 22.0814 9.73807 22.1071 9.6794C22.1763 9.5128 22.227 9.41928 22.2326 9.40896C22.871 8.10109 23.983 7.11343 25.355 6.64529C26.7264 6.17698 28.1939 6.28419 29.4872 6.94737C30.8721 7.65731 31.8933 8.95203 32.2919 10.4724C33.7185 9.88759 35.342 9.94929 36.7273 10.6594C39.3971 12.0283 40.4822 15.3675 39.146 18.1027C39.1354 18.1242 39.1236 18.1477 39.111 18.1697C39.0905 18.2113 39.0629 18.2664 39.0245 18.3358L38.6656 18.163L39.0098 18.3616L38.9431 18.4789C38.9211 18.5184 38.8964 18.5584 38.8716 18.598C38.8265 18.6704 38.7744 18.7518 38.7146 18.8395C37.6184 20.4715 34.1074 24.3834 25.2469 25.3849C25.2323 25.3863 25.2178 25.3872 25.2034 25.3872ZM27.07 7.16784C26.5784 7.16784 26.0848 7.24927 25.6046 7.41302C24.4328 7.81288 23.4828 8.65653 22.9299 9.78856C22.9165 9.81381 22.8818 9.88084 22.8303 10.0049C22.8082 10.0551 22.7872 10.1056 22.7674 10.1621C22.7443 10.2213 22.7287 10.2659 22.7131 10.3111C22.6994 10.3461 22.694 10.3639 22.6888 10.3804C22.0814 12.1456 21.1517 17.0148 25.4146 24.5508C33.7627 23.542 37.0398 19.9057 38.0662 18.3776C38.121 18.2976 38.1669 18.2259 38.2066 18.1623C38.2241 18.134 38.2418 18.1055 38.2581 18.0766L38.322 17.9647C38.3307 17.9487 38.3392 17.9334 38.3479 17.9196C38.3722 17.8749 38.3954 17.8273 38.411 17.7955C38.4175 17.7825 38.4261 17.7665 38.4338 17.7542L38.44 17.7407L38.4402 17.7405C39.5814 15.4043 38.6547 12.5522 36.3739 11.3829C35.0614 10.7101 33.4981 10.7192 32.1918 11.4076C32.0797 11.4666 31.9471 11.4675 31.8343 11.4095C31.7216 11.3519 31.6428 11.2426 31.6218 11.1155C31.3766 9.63157 30.4464 8.34379 29.1339 7.67082C28.482 7.33674 27.7783 7.16784 27.07 7.16784Z" fill="white"/>
<path d="M32.9821 8.94261C32.9821 8.94261 27.2146 5.10522 32.9821 0.303467C38.7522 5.10522 32.9821 8.94261 32.9821 8.94261Z" fill="#019934"/>
<path d="M32.9824 9.2461C32.9264 9.2461 32.8701 9.22974 32.821 9.19703C32.7167 9.12751 30.2622 7.466 30.1284 4.89275C30.0423 3.23621 30.9398 1.61311 32.7957 0.0678739C32.9045 -0.0226246 33.0603 -0.0226246 33.1692 0.0678739C35.0258 1.61275 35.9235 3.23621 35.8375 4.89257C35.7036 7.46582 33.2481 9.12768 33.1436 9.19703C33.0947 9.22974 33.0385 9.2461 32.9824 9.2461ZM32.9824 0.69763C31.4096 2.06222 30.6485 3.46077 30.7197 4.85718C30.8171 6.76459 32.4557 8.16705 32.9824 8.57047C33.5093 8.16723 35.1486 6.76477 35.246 4.85718C35.3172 3.46077 34.556 2.06222 32.9824 0.69763Z" fill="white"/>
<path d="M32.9825 9.24614C32.8189 9.24614 32.686 9.1103 32.686 8.94264V0.303499C32.686 0.136015 32.8187 0 32.9825 0C33.1462 0 33.2789 0.135837 33.2789 0.303499V8.94282C33.2791 9.11031 33.1462 9.24614 32.9825 9.24614Z" fill="white"/>
<path d="M32.9826 4.66605C32.8968 4.66605 32.8153 4.628 32.7589 4.5615L30.9698 2.4507C30.8625 2.32428 30.8757 2.13244 30.9993 2.02256C31.1228 1.91268 31.3097 1.9262 31.4172 2.05279L32.9826 3.89974L34.548 2.05279C34.6552 1.9262 34.8418 1.91268 34.9659 2.02256C35.0894 2.13244 35.1026 2.32428 34.9954 2.4507L33.2063 4.5615C33.15 4.628 33.0685 4.66605 32.9826 4.66605Z" fill="white"/>
<path d="M32.9823 7.58937C32.9038 7.58937 32.8287 7.55754 32.7728 7.50047L30.2095 4.87548C30.0937 4.75707 30.0937 4.56487 30.2095 4.44645C30.3253 4.32786 30.5125 4.32786 30.6283 4.44645L32.9687 6.84333L35.3087 4.1298C35.4166 4.00392 35.6041 3.99218 35.7268 4.10331C35.8495 4.21425 35.8609 4.40592 35.7526 4.53162L33.2042 7.48696C33.1503 7.54972 33.073 7.5867 32.9915 7.58937C32.9885 7.58937 32.9854 7.58937 32.9823 7.58937Z" fill="white"/>
</svg>
