<svg width="48" height="48" viewBox="0 0 48 48" fill="none" xmlns="http://www.w3.org/2000/svg">
<rect width="48" height="48" rx="8" fill="#00BCE7"/>
<path d="M34.5083 12.4102H13.4897L11.0176 18.9176C11.0157 19.345 11.0982 19.7686 11.2605 20.164C11.4227 20.5595 11.6615 20.9189 11.963 21.2218C12.2646 21.5247 12.623 21.7651 13.0177 21.9291C13.4124 22.0931 13.8356 22.1775 14.263 22.1775C14.6904 22.1775 15.1136 22.0931 15.5083 21.9291C15.903 21.7651 16.2614 21.5247 16.5629 21.2218C16.8645 20.9189 17.1032 20.5595 17.2655 20.164C17.4277 19.7686 17.5102 19.345 17.5083 18.9176C17.5083 19.7784 17.8502 20.6038 18.4589 21.2125C19.0675 21.8211 19.893 22.163 20.7537 22.163C21.6144 22.163 22.4399 21.8211 23.0485 21.2125C23.6572 20.6038 23.9991 19.7784 23.9991 18.9176C23.9991 19.3438 24.083 19.7658 24.2461 20.1596C24.4092 20.5533 24.6483 20.9111 24.9496 21.2124C25.251 21.5138 25.6087 21.7528 26.0025 21.9159C26.3962 22.079 26.8182 22.163 27.2444 22.163C27.6706 22.163 28.0926 22.079 28.4863 21.9159C28.8801 21.7528 29.2378 21.5138 29.5392 21.2124C29.8406 20.9111 30.0796 20.5533 30.2427 20.1596C30.4058 19.7658 30.4897 19.3438 30.4897 18.9176C30.4897 19.7784 30.8317 20.6038 31.4403 21.2125C32.0489 21.8211 32.8744 22.163 33.7351 22.163C34.5959 22.163 35.4213 21.8211 36.03 21.2125C36.6386 20.6038 36.9805 19.7784 36.9805 18.9176L34.5083 12.4102Z" fill="white"/>
<path d="M36.981 33.7106H34.2412V23.0685C33.5388 23.1587 32.825 23.0671 32.1681 22.8024C31.5112 22.5377 30.9334 22.1087 30.4898 21.5566C30.0979 22.0394 29.6032 22.4287 29.0417 22.696C28.4803 22.9634 27.8663 23.1021 27.2445 23.1021C26.6226 23.1021 26.0086 22.9634 25.4472 22.696C24.8858 22.4287 24.3911 22.0394 23.9992 21.5566C23.6072 22.0394 23.1125 22.4287 22.5511 22.696C21.9897 22.9634 21.3757 23.1021 20.7538 23.1021C20.132 23.1021 19.518 22.9634 18.9566 22.696C18.3952 22.4287 17.9004 22.0394 17.5085 21.5566C17.065 22.1087 16.4871 22.5377 15.8302 22.8024C15.1734 23.0671 14.4595 23.1587 13.7571 23.0685V33.7106H11.0174C10.7683 33.7106 10.5294 33.8096 10.3532 33.9857C10.1771 34.1619 10.0781 34.4008 10.0781 34.6499C10.0781 34.899 10.1771 35.1379 10.3532 35.314C10.5294 35.4901 10.7683 35.5891 11.0174 35.5891H36.981C37.2301 35.5891 37.469 35.4901 37.6451 35.314C37.8212 35.1379 37.9202 34.899 37.9202 34.6499C37.9202 34.4008 37.8212 34.1619 37.6451 33.9857C37.469 33.8096 37.2301 33.7106 36.981 33.7106ZM18.0987 28.5365C18.0987 27.8959 18.3532 27.2816 18.8061 26.8287C19.259 26.3758 19.8733 26.1214 20.5138 26.1214C21.1544 26.1214 21.7687 26.3758 22.2216 26.8287C22.6745 27.2816 22.929 27.8959 22.929 28.5365V33.7106H18.0987V28.5365Z" fill="white"/>
</svg>
