<svg width="48" height="48" viewBox="0 0 48 48" fill="none" xmlns="http://www.w3.org/2000/svg">
<rect width="48" height="48" rx="8" fill="#DC2626"/>
<g clip-path="url(#clip0_1544_165)">
<path d="M35.2593 25.0184C37.2121 25.0184 38.8007 23.4297 38.8007 21.477V19.7854H36.5563C35.8725 19.7854 35.2034 19.9844 34.6308 20.3581C34.5675 20.0078 34.4871 19.6609 34.3898 19.3185L35.0656 18.9296C35.8849 18.4566 36.4708 17.6929 36.7157 16.7792C36.9605 15.8655 36.8349 14.9111 36.3619 14.0919L35.5161 12.627L33.5724 13.7492C32.8054 14.192 32.2362 14.9031 31.9697 15.7513C31.7072 16.5864 31.7596 17.4828 32.1169 18.2769L32.5157 19.2263C32.87 20.2183 33.0499 21.2641 33.0499 22.3353C33.0499 27.4352 28.9009 31.5843 23.801 31.5843C18.7011 31.5843 14.5521 27.4352 14.5521 22.3353C14.5521 21.2615 14.7318 20.2157 15.0859 19.2264L15.4847 18.2769C15.842 17.4827 15.8943 16.5864 15.6319 15.7513C15.3654 14.9031 14.7962 14.192 14.0291 13.7492L12.0854 12.627L11.2397 14.0919C10.7666 14.9111 10.641 15.8655 10.8858 16.7792C11.1306 17.6929 11.7166 18.4566 12.5369 18.9302L13.2115 19.3184C13.1142 19.6608 13.0338 20.0077 12.9707 20.358C12.3999 19.9864 11.7339 19.7854 11.0452 19.7854H8.80078V21.477C8.80078 23.4298 10.3895 25.0184 12.3435 25.0184L13.1254 25.0173C13.2123 25.3631 13.3161 25.7043 13.4364 26.0399C12.7547 26.0019 12.0761 26.1602 11.4792 26.5049L9.53552 27.6271L10.3813 29.092C11.0365 30.2268 12.2289 30.8619 13.454 30.8619C14.0742 30.862 14.6834 30.6984 15.2201 30.3877L15.9025 29.9924C16.1506 30.2483 16.4111 30.4922 16.6829 30.7232C16.0701 31.0317 15.5608 31.5126 15.2178 32.1068L14.0956 34.0505L15.5605 34.8962C16.1063 35.2113 16.7118 35.3723 17.3255 35.3723C17.6332 35.3723 17.9429 35.3318 18.2479 35.2501C19.1616 35.0053 19.9253 34.4192 20.3989 33.5989L20.788 32.9228C21.7459 33.1958 22.7567 33.342 23.801 33.342C24.8452 33.342 25.8559 33.1958 26.8137 32.9229L27.2034 33.6C27.8587 34.7349 29.0514 35.37 30.2763 35.37C30.896 35.3702 31.5048 35.2068 32.0411 34.8963L33.506 34.0505L32.3838 32.1069C32.0408 31.5128 31.5317 31.0319 30.9191 30.7233C31.1908 30.4924 31.4512 30.2485 31.6995 29.9925L32.3826 30.3884C32.9189 30.6989 33.5277 30.8623 34.1474 30.8621C35.3722 30.8621 36.5652 30.2269 37.2203 29.0921L38.0661 27.6272L36.1224 26.505C35.5256 26.1605 34.8472 26.0021 34.1656 26.04C34.2859 25.7044 34.3897 25.3632 34.4766 25.0175L35.2593 25.0184Z" fill="white"/>
<path d="M23.8011 14.8828C19.73 14.8828 16.418 18.1949 16.418 22.266C16.418 26.3371 19.73 29.6492 23.8011 29.6492C27.8722 29.6492 31.1843 26.3371 31.1843 22.266C31.1843 18.1949 27.8722 14.8828 23.8011 14.8828ZM24.6798 25.1956H22.9221V22.137C22.5473 22.3029 22.1419 22.3884 21.7321 22.3879V20.6302C22.3883 20.6302 22.9221 20.0963 22.9221 19.4402V19.3364H24.6798V25.1956Z" fill="white"/>
</g>
<defs>
<clipPath id="clip0_1544_165">
<rect width="30" height="30" fill="white" transform="translate(8.80078 9)"/>
</clipPath>
</defs>
</svg>
